<svg width="217" height="130" viewBox="0 0 217 130" fill="none" xmlns="http://www.w3.org/2000/svg">
<mask id="path-1-inside-1_533_66" fill="white">
<path fill-rule="evenodd" clip-rule="evenodd" d="M98.1116 1.00614C75.6993 -1.50938 51.3264 2.57912 32.4756 12.9723C13.6044 23.3766 0.18299 40.1629 5.33462e-05 62.9919C-0.066517 71.2993 3.08816 79.6355 7.76848 87.4193C12.4529 95.2101 18.7077 102.517 24.9442 108.787C31.1842 115.059 37.4283 120.316 42.1106 124.004C44.2306 125.673 46.032 127.022 47.3702 128H42.5V130H50.5H51.8365L51.4594 128.718L48.9594 120.218L47.0406 120.782L48.7264 126.514C47.3896 125.54 45.542 124.16 43.348 122.432C38.7088 118.779 32.5295 113.576 26.3622 107.376C20.1915 101.173 14.0551 93.9934 9.48249 86.3887C4.90576 78.7772 1.93748 70.8091 1.99999 63.0079C2.17563 41.0896 15.0195 24.8803 33.4412 14.7237C51.8834 4.55588 75.8313 0.518004 97.8885 2.99366C107.043 4.02109 114.161 9.10422 120.271 16.08C125.731 22.313 130.312 29.9684 134.791 37.4522L134.791 37.4524C135.34 38.3693 135.887 39.2837 136.434 40.1925C141.407 48.4528 146.396 56.3055 152.414 61.1245C155.444 63.5514 158.769 65.2379 162.514 65.8132C166.261 66.3888 170.35 65.8395 174.889 63.921C180.649 61.4867 185.673 56.9588 189.957 51.6206C194.247 46.2758 197.841 40.0616 200.723 34.1708C203.606 28.2765 205.789 22.6817 207.252 18.5618C207.327 18.35 207.4 18.1422 207.471 17.9383C207.809 17.979 208.152 18 208.5 18C213.194 18 217 14.1944 217 9.49996C217 4.80554 213.194 0.999959 208.5 0.999959C203.806 0.999959 200 4.80554 200 9.49996C200 13.1454 202.295 16.2548 205.519 17.4625C205.469 17.604 205.418 17.7475 205.367 17.8929C203.922 21.9632 201.768 27.4841 198.926 33.2919C196.083 39.1033 192.564 45.1777 188.397 50.3687C184.226 55.5664 179.451 59.8217 174.111 62.0788C169.851 63.8794 166.137 64.3463 162.817 63.8363C159.495 63.326 156.488 61.8249 153.664 59.5634C147.972 55.0054 143.154 47.4775 138.148 39.161C137.603 38.2559 137.056 37.342 136.506 36.4226C132.042 28.9616 127.363 21.141 121.775 14.7622C115.481 7.57652 107.943 2.10963 98.1116 1.00614Z"/>
</mask>
<path fill-rule="evenodd" clip-rule="evenodd" d="M98.1116 1.00614C75.6993 -1.50938 51.3264 2.57912 32.4756 12.9723C13.6044 23.3766 0.18299 40.1629 5.33462e-05 62.9919C-0.066517 71.2993 3.08816 79.6355 7.76848 87.4193C12.4529 95.2101 18.7077 102.517 24.9442 108.787C31.1842 115.059 37.4283 120.316 42.1106 124.004C44.2306 125.673 46.032 127.022 47.3702 128H42.5V130H50.5H51.8365L51.4594 128.718L48.9594 120.218L47.0406 120.782L48.7264 126.514C47.3896 125.54 45.542 124.16 43.348 122.432C38.7088 118.779 32.5295 113.576 26.3622 107.376C20.1915 101.173 14.0551 93.9934 9.48249 86.3887C4.90576 78.7772 1.93748 70.8091 1.99999 63.0079C2.17563 41.0896 15.0195 24.8803 33.4412 14.7237C51.8834 4.55588 75.8313 0.518004 97.8885 2.99366C107.043 4.02109 114.161 9.10422 120.271 16.08C125.731 22.313 130.312 29.9684 134.791 37.4522L134.791 37.4524C135.34 38.3693 135.887 39.2837 136.434 40.1925C141.407 48.4528 146.396 56.3055 152.414 61.1245C155.444 63.5514 158.769 65.2379 162.514 65.8132C166.261 66.3888 170.35 65.8395 174.889 63.921C180.649 61.4867 185.673 56.9588 189.957 51.6206C194.247 46.2758 197.841 40.0616 200.723 34.1708C203.606 28.2765 205.789 22.6817 207.252 18.5618C207.327 18.35 207.4 18.1422 207.471 17.9383C207.809 17.979 208.152 18 208.5 18C213.194 18 217 14.1944 217 9.49996C217 4.80554 213.194 0.999959 208.5 0.999959C203.806 0.999959 200 4.80554 200 9.49996C200 13.1454 202.295 16.2548 205.519 17.4625C205.469 17.604 205.418 17.7475 205.367 17.8929C203.922 21.9632 201.768 27.4841 198.926 33.2919C196.083 39.1033 192.564 45.1777 188.397 50.3687C184.226 55.5664 179.451 59.8217 174.111 62.0788C169.851 63.8794 166.137 64.3463 162.817 63.8363C159.495 63.326 156.488 61.8249 153.664 59.5634C147.972 55.0054 143.154 47.4775 138.148 39.161C137.603 38.2559 137.056 37.342 136.506 36.4226C132.042 28.9616 127.363 21.141 121.775 14.7622C115.481 7.57652 107.943 2.10963 98.1116 1.00614Z" fill="white"/>
<path d="M32.4756 12.9723L33.4413 14.7237L33.4413 14.7237L32.4756 12.9723ZM98.1116 1.00614L97.8885 2.99366L97.8885 2.99366L98.1116 1.00614ZM5.33462e-05 62.9919L1.99999 63.0079L5.33462e-05 62.9919ZM7.76848 87.4193L6.05446 88.45L6.05446 88.45L7.76848 87.4193ZM24.9442 108.787L26.3622 107.376L26.3622 107.376L24.9442 108.787ZM42.1106 124.004L43.348 122.432L43.348 122.432L42.1106 124.004ZM47.3702 128V130H53.4981L48.55 126.385L47.3702 128ZM42.5 128V126H40.5V128H42.5ZM42.5 130H40.5V132H42.5V130ZM51.8365 130V132H54.5095L53.7552 129.436L51.8365 130ZM51.4594 128.718L53.3781 128.153L53.3781 128.153L51.4594 128.718ZM48.9594 120.218L50.8781 119.653L50.3137 117.735L48.395 118.299L48.9594 120.218ZM47.0406 120.782L46.4763 118.863L44.5576 119.428L45.1219 121.346L47.0406 120.782ZM48.7264 126.514L47.5489 128.13L52.3056 131.595L50.6451 125.949L48.7264 126.514ZM43.348 122.432L42.1106 124.004L42.1106 124.004L43.348 122.432ZM26.3622 107.376L24.9442 108.787L24.9442 108.787L26.3622 107.376ZM9.48249 86.3887L11.1965 85.3581L11.1965 85.3581L9.48249 86.3887ZM1.99999 63.0079L5.32432e-05 62.9919L5.3243e-05 62.9919L1.99999 63.0079ZM33.4412 14.7237L34.4069 16.4752L34.4069 16.4752L33.4412 14.7237ZM97.8885 2.99366L98.1116 1.00614L98.1116 1.00614L97.8885 2.99366ZM120.271 16.08L118.766 17.3978L118.766 17.3978L120.271 16.08ZM134.791 37.4522L136.528 36.46L136.518 36.4425L136.507 36.4252L134.791 37.4522ZM134.791 37.4524L133.055 38.4447L133.065 38.4622L133.075 38.4795L134.791 37.4524ZM136.434 40.1925L134.721 41.224L134.721 41.224L136.434 40.1925ZM152.414 61.1245L151.164 62.6857L151.164 62.6857L152.414 61.1245ZM162.514 65.8132L162.817 63.8363L162.817 63.8363L162.514 65.8132ZM174.889 63.921L174.111 62.0788L174.111 62.0788L174.889 63.921ZM189.957 51.6206L188.397 50.3687L188.397 50.3687L189.957 51.6206ZM200.723 34.1708L202.519 35.0498L202.519 35.0498L200.723 34.1708ZM207.252 18.5618L209.136 19.2307L209.136 19.2306L207.252 18.5618ZM207.471 17.9383L207.711 15.9527L206.115 15.7602L205.584 17.2776L207.471 17.9383ZM205.519 17.4625L207.406 18.1256L208.055 16.2769L206.22 15.5895L205.519 17.4625ZM205.367 17.8929L203.482 17.2239L203.482 17.224L205.367 17.8929ZM198.926 33.2919L197.13 32.413L197.13 32.413L198.926 33.2919ZM188.397 50.3687L189.957 51.6206L189.957 51.6206L188.397 50.3687ZM174.111 62.0788L174.889 63.921L174.889 63.921L174.111 62.0788ZM162.817 63.8363L163.121 61.8595L163.121 61.8595L162.817 63.8363ZM153.664 59.5634L152.414 61.1245L152.414 61.1245L153.664 59.5634ZM138.148 39.161L139.861 38.1295L139.861 38.1295L138.148 39.161ZM136.506 36.4226L134.79 37.4495L134.79 37.4495L136.506 36.4226ZM121.775 14.7622L123.28 13.4444L123.28 13.4444L121.775 14.7622ZM33.4413 14.7237C51.8834 4.55589 75.8313 0.518002 97.8885 2.99366L98.3346 -0.981384C75.5672 -3.53675 50.7695 0.602353 31.51 11.2208L33.4413 14.7237ZM1.99999 63.0079C2.17563 41.09 15.0191 24.8805 33.4413 14.7237L31.51 11.2208C12.1897 21.8728 -1.80965 39.2359 -1.99988 62.9759L1.99999 63.0079ZM9.48249 86.3887C4.90574 78.7772 1.93748 70.8091 1.99999 63.0079L-1.99988 62.9759C-2.07051 71.7896 1.27058 80.4939 6.05446 88.45L9.48249 86.3887ZM26.3622 107.376C20.1915 101.173 14.0551 93.9934 9.48249 86.3887L6.05446 88.45C10.8508 96.4268 17.2239 103.861 23.5263 110.197L26.3622 107.376ZM43.348 122.432C38.7088 118.779 32.5295 113.576 26.3622 107.376L23.5263 110.197C29.8388 116.543 36.1478 121.853 40.8732 125.575L43.348 122.432ZM48.55 126.385C47.229 125.42 45.447 124.085 43.348 122.432L40.8732 125.575C43.0142 127.261 44.835 128.625 46.1904 129.615L48.55 126.385ZM42.5 130H47.3702V126H42.5V130ZM44.5 130V128H40.5V130H44.5ZM50.5 128H42.5V132H50.5V128ZM51.8365 128H50.5V132H51.8365V128ZM49.5407 129.282L49.9178 130.564L53.7552 129.436L53.3781 128.153L49.5407 129.282ZM47.0406 120.782L49.5407 129.282L53.3781 128.153L50.8781 119.653L47.0406 120.782ZM47.605 122.701L49.5237 122.137L48.395 118.299L46.4763 118.863L47.605 122.701ZM50.6451 125.949L48.9594 120.218L45.1219 121.346L46.8077 127.078L50.6451 125.949ZM42.1106 124.004C44.3265 125.749 46.1944 127.144 47.5489 128.13L49.9039 124.897C48.5849 123.936 46.7574 122.572 44.5855 120.861L42.1106 124.004ZM24.9442 108.787C31.1842 115.059 37.4283 120.316 42.1106 124.004L44.5855 120.861C39.9893 117.241 33.8749 112.093 27.7801 105.966L24.9442 108.787ZM7.76848 87.4193C12.4529 95.2101 18.7077 102.517 24.9442 108.787L27.7801 105.966C21.6753 99.8285 15.6572 92.7767 11.1965 85.3581L7.76848 87.4193ZM5.3243e-05 62.9919C-0.0665167 71.2993 3.08814 79.6355 7.76848 87.4193L11.1965 85.3581C6.72337 77.9189 3.94147 70.3189 3.99992 63.0239L5.3243e-05 62.9919ZM32.4756 12.9723C13.604 23.3769 0.182987 40.1632 5.32433e-05 62.9919L3.99992 63.0239C4.16827 42.016 16.4349 26.3837 34.4069 16.4752L32.4756 12.9723ZM98.1116 1.00614C75.6992 -1.50938 51.3264 2.57913 32.4756 12.9723L34.4069 16.4752C52.4404 6.53263 75.9634 2.54539 97.6654 4.98118L98.1116 1.00614ZM121.775 14.7622C115.481 7.57635 107.943 2.10962 98.1116 1.00614L97.6654 4.98118C106.142 5.93257 112.84 10.6321 118.766 17.3978L121.775 14.7622ZM136.507 36.4252C132.049 28.9754 127.376 21.1559 121.775 14.7622L118.766 17.3978C124.085 23.4702 128.576 30.9615 133.075 38.4793L136.507 36.4252ZM136.528 36.4601L136.528 36.46L133.055 38.4445L133.055 38.4447L136.528 36.4601ZM138.148 39.161C137.602 38.2547 137.056 37.3426 136.507 36.4253L133.075 38.4795C133.624 39.396 134.172 40.3126 134.721 41.224L138.148 39.161ZM153.664 59.5634C147.971 55.0053 143.154 47.477 138.148 39.161L134.721 41.224C139.66 49.4285 144.82 57.6058 151.164 62.6857L153.664 59.5634ZM162.817 63.8363C159.495 63.326 156.488 61.825 153.664 59.5634L151.164 62.6857C154.401 65.2779 158.043 67.1498 162.21 67.79L162.817 63.8363ZM174.111 62.0788C169.851 63.8794 166.137 64.3463 162.817 63.8363L162.21 67.79C166.385 68.4314 170.85 67.7996 175.668 65.7632L174.111 62.0788ZM188.397 50.3687C184.226 55.5664 179.451 59.8218 174.111 62.0788L175.668 65.7632C181.847 63.1516 187.12 58.3512 191.517 52.8725L188.397 50.3687ZM198.926 33.2919C196.083 39.1033 192.564 45.1777 188.397 50.3687L191.517 52.8725C195.93 47.3739 199.598 41.0199 202.519 35.0498L198.926 33.2919ZM205.367 17.8929C203.922 21.9632 201.768 27.4841 198.926 33.2919L202.519 35.0498C205.445 29.069 207.657 23.4002 209.136 19.2307L205.367 17.8929ZM205.584 17.2776C205.513 17.4787 205.441 17.6839 205.367 17.8929L209.136 19.2306C209.213 19.0161 209.287 18.8056 209.359 18.5991L205.584 17.2776ZM208.5 16C208.232 16 207.969 15.9839 207.711 15.9527L207.232 19.9239C207.648 19.9742 208.072 20 208.5 20V16ZM215 9.49996C215 13.0898 212.09 16 208.5 16V20C214.299 20 219 15.2989 219 9.49996H215ZM208.5 2.99996C212.09 2.99996 215 5.91011 215 9.49996H219C219 3.70097 214.299 -1.00004 208.5 -1.00004V2.99996ZM202 9.49996C202 5.91011 204.91 2.99996 208.5 2.99996V-1.00004C202.701 -1.00004 198 3.70097 198 9.49996H202ZM206.22 15.5895C203.752 14.6649 202 12.2845 202 9.49996H198C198 14.0063 200.838 17.8448 204.817 19.3354L206.22 15.5895ZM207.252 18.5618C207.304 18.4145 207.355 18.2691 207.406 18.1256L203.632 16.7993C203.583 16.939 203.533 17.0805 203.482 17.2239L207.252 18.5618ZM200.723 34.1708C203.606 28.2765 205.789 22.6817 207.252 18.5618L203.482 17.224C202.055 21.2447 199.929 26.6916 197.13 32.413L200.723 34.1708ZM189.957 51.6206C194.247 46.2758 197.841 40.0616 200.723 34.1708L197.13 32.413C194.325 38.145 190.881 44.0796 186.838 49.1169L189.957 51.6206ZM174.889 63.921C180.649 61.4867 185.673 56.9588 189.957 51.6206L186.838 49.1169C182.779 54.174 178.252 58.1568 173.332 60.2366L174.889 63.921ZM162.514 65.8132C166.261 66.3888 170.35 65.8395 174.889 63.921L173.332 60.2366C169.351 61.9192 166.013 62.3038 163.121 61.8595L162.514 65.8132ZM152.414 61.1245C155.445 63.5515 158.769 65.2379 162.514 65.8132L163.121 61.8595C160.221 61.4141 157.532 60.0983 154.914 58.0022L152.414 61.1245ZM136.434 40.1925C141.407 48.4523 146.395 56.3054 152.414 61.1245L154.914 58.0022C149.548 53.7054 144.902 46.5028 139.861 38.1295L136.434 40.1925ZM134.79 37.4495C135.34 38.3685 135.888 39.2847 136.434 40.1925L139.861 38.1295C139.318 37.2271 138.773 36.3155 138.222 35.3957L134.79 37.4495ZM120.271 16.08C125.718 22.2983 130.306 29.9555 134.79 37.4495L138.222 35.3957C133.778 27.9677 129.008 19.9836 123.28 13.4444L120.271 16.08ZM97.8885 2.99366C107.042 4.02108 114.16 9.10406 120.271 16.08L123.28 13.4444C116.802 6.04898 108.844 0.198191 98.3346 -0.981384L97.8885 2.99366Z" fill="#E4E4E4" mask="url(#path-1-inside-1_533_66)"/>
</svg>
