<svg width="19" height="19" viewBox="0 0 19 19" fill="none" xmlns="http://www.w3.org/2000/svg">
<path fill-rule="evenodd" clip-rule="evenodd" d="M4.77783 0.109162C4.4946 0.262843 4.35176 0.582106 4.35176 1.06163V1.47189L3.77878 1.47277C2.12993 1.47529 0.834262 2.37254 0.204059 3.94823L0.0266945 4.39175L0.00510619 9.89883C-0.0101979 13.7843 0.00835903 15.5543 0.0680967 15.91C0.309783 17.3502 1.49093 18.5781 2.92708 18.8825C3.66699 19.0392 15.3132 19.0392 16.0531 18.8825C17.4428 18.588 18.5873 17.4437 18.8818 16.0542C19.0417 15.2998 19.0383 5.04779 18.878 4.36772C18.4665 2.62239 17.0065 1.47189 15.203 1.47189H14.6284V1.06163C14.6284 0.573162 14.4833 0.258703 14.1873 0.105614C13.9149 -0.0352047 13.7893 -0.0352047 13.517 0.105614C13.221 0.258703 13.0758 0.573162 13.0758 1.06163V1.47189H9.49008H5.90435V1.06163C5.90435 0.573162 5.75922 0.258703 5.46319 0.105614C5.19518 -0.0329131 5.0383 -0.0321 4.77783 0.109162ZM4.36403 3.84355L4.38873 4.73688L4.63019 4.95236C5.00621 5.28811 5.49232 5.21441 5.75619 4.78168C5.87951 4.57943 5.90383 4.40875 5.90405 3.74494L5.90435 2.9503H9.48387H13.0635L13.0881 3.83587C13.1115 4.67501 13.1228 4.73149 13.3048 4.91326C13.4224 5.03072 13.6118 5.12046 13.7934 5.14478C14.0488 5.17908 14.1247 5.1535 14.3407 4.96071L14.5914 4.73688L14.6164 3.8335L14.6413 2.93012L15.2448 2.97913C15.9925 3.03989 16.5048 3.27207 16.9121 3.73474C17.2854 4.15868 17.4379 4.61026 17.4379 5.29195V5.8332H9.49008H1.54232V5.29195C1.54232 4.6294 1.68981 4.1725 2.03308 3.77156C2.50418 3.22122 3.08174 2.98201 3.99437 2.95902L4.33941 2.9503L4.36403 3.84355ZM17.4217 11.6175C17.401 15.8942 17.3998 15.9254 17.2381 16.2276C16.9879 16.6952 16.7472 16.9449 16.3165 17.1834L15.9222 17.4018H9.49008H3.05794L2.66365 17.1834C2.233 16.9449 1.99227 16.6952 1.74208 16.2276C1.58039 15.9254 1.57913 15.8942 1.55851 11.6175L1.53773 7.31161H9.49008H17.4424L17.4217 11.6175ZM4.00819 9.59768C3.68777 9.79305 3.568 10.1668 3.71387 10.5159C3.88384 10.9227 4.131 11.0077 5.14284 11.0073C5.87248 11.0071 6.05332 10.9839 6.24791 10.8653C6.56834 10.6699 6.68811 10.2962 6.54224 9.94703C6.37227 9.54024 6.12511 9.45523 5.11327 9.4556C4.38362 9.45582 4.20278 9.47903 4.00819 9.59768ZM8.37022 9.59768C8.0498 9.79305 7.93003 10.1668 8.0759 10.5159C8.2452 10.9211 8.49421 11.0076 9.49008 11.0076C10.6415 11.0076 10.9466 10.8451 10.9466 10.2315C10.9466 9.61542 10.6428 9.45523 9.4753 9.4556C8.74566 9.45582 8.56482 9.47903 8.37022 9.59768ZM12.7323 9.59768C12.4118 9.79305 12.2921 10.1668 12.4379 10.5159C12.6079 10.9227 12.8551 11.0077 13.8669 11.0073C14.5965 11.0071 14.7774 10.9839 14.972 10.8653C15.2924 10.6699 15.4122 10.2962 15.2663 9.94703C15.0963 9.54024 14.8492 9.45523 13.8373 9.4556C13.1077 9.45582 12.9268 9.47903 12.7323 9.59768ZM4.00819 13.959C3.49976 14.269 3.54671 15.0346 4.08797 15.2607C4.25993 15.3326 4.60956 15.3689 5.12805 15.3689C5.64654 15.3689 5.99617 15.3326 6.16814 15.2607C6.7094 15.0346 6.75635 14.269 6.24791 13.959C5.9056 13.7503 4.3505 13.7503 4.00819 13.959ZM8.37022 13.959C8.0498 14.1544 7.93003 14.5281 8.0759 14.8772C8.2435 15.2783 8.49717 15.3689 9.45179 15.3689C10.6166 15.3689 10.9466 15.1976 10.9466 14.5928C10.9466 13.9767 10.6428 13.8165 9.4753 13.8169C8.74566 13.8171 8.56482 13.8403 8.37022 13.959ZM12.7323 13.959C12.2238 14.269 12.2708 15.0346 12.812 15.2607C12.984 15.3326 13.3336 15.3689 13.8521 15.3689C14.3706 15.3689 14.7202 15.3326 14.8922 15.2607C15.4335 15.0346 15.4804 14.269 14.972 13.959C14.6297 13.7503 13.0746 13.7503 12.7323 13.959Z" fill="#C5D335"/>
</svg>
