<svg width="25" height="15" viewBox="0 0 25 15" fill="none" xmlns="http://www.w3.org/2000/svg">
<path fill-rule="evenodd" clip-rule="evenodd" d="M2.52064 0.200507C2.32626 0.384725 2.30892 0.490957 2.30892 1.50025V2.59949H1.87068C1.32356 2.59949 1.0429 2.81767 1.0429 3.24304C1.0429 3.63088 1.40673 3.89923 1.93252 3.89923H2.30892V4.54607V5.19291L1.32093 5.21761C0.379109 5.24118 0.32389 5.25305 0.139634 5.47305C-0.0840625 5.74002 -0.0369271 6.05785 0.266237 6.32759C0.430723 6.47394 0.592385 6.49872 1.38375 6.49872H2.30892V9.60303V12.7073L2.53427 12.8957C2.73187 13.0609 2.86987 13.0841 3.65266 13.0841H4.5455L4.78916 13.5119C5.07694 14.0171 5.61354 14.5047 6.15569 14.7537C6.703 15.0049 7.86804 15.0595 8.52676 14.8648C9.14283 14.6828 9.91501 14.0794 10.1983 13.5588L10.4093 13.1707L13.8822 13.173L17.3552 13.1752L17.541 13.5332C18.2017 14.8066 20.0597 15.3686 21.5437 14.744C22.1639 14.4829 22.6356 14.0741 22.9506 13.5249L23.1422 13.1907L23.8393 13.1557C24.4554 13.1246 24.5635 13.0927 24.7683 12.8809L25 12.6411V10.2688C25 8.96252 24.9583 7.80627 24.9072 7.69579C24.8561 7.58548 23.8106 6.57887 22.5838 5.45893L20.3534 3.42266L18.8787 3.39476L17.4038 3.36686V1.91175C17.4038 0.570848 17.388 0.438707 17.202 0.228322L17.0002 0H9.86632H2.73246L2.52064 0.200507ZM15.8457 6.54205V11.7843H13.1854H10.5252L10.3028 11.3067C10.0307 10.7228 9.43148 10.1576 8.78357 9.87399C8.05901 9.55676 6.94978 9.56976 6.18354 9.90457C5.51323 10.1974 4.90048 10.7888 4.67055 11.3648C4.51054 11.7658 4.48688 11.7843 4.13638 11.7843H3.76972V9.14154V6.49872H5.81922C7.86551 6.49872 7.86921 6.49838 8.10781 6.286C8.39948 6.02657 8.41282 5.73023 8.14657 5.42903L7.94624 5.20236L5.88233 5.17905L3.81841 5.15565L3.78978 4.52744L3.76115 3.89923H6.07213C8.31076 3.89923 8.39003 3.89334 8.60847 3.71086C8.86762 3.49423 8.90871 3.07043 8.69573 2.811C8.56747 2.65468 8.39032 2.63978 6.18802 2.59949L3.81841 2.55616L3.78978 1.92795L3.76115 1.29974H9.8034H15.8457V6.54205ZM20.8668 5.82719C21.511 6.41103 22.1198 6.97633 22.2195 7.08361L22.4007 7.27857H19.9023H17.4038V6.02215V4.76573H18.5496H19.6954L20.8668 5.82719ZM23.4418 10.1885C23.4418 11.9239 23.3768 12.1023 23.0385 11.2956C22.499 10.0086 20.6899 9.29863 19.2134 9.79453C18.5729 10.0097 17.8748 10.5297 17.5953 11.0002L17.4124 11.3078L17.4081 9.94304L17.4038 8.57831H20.4228H23.4418V10.1885ZM8.34699 11.1995C9.51251 11.9073 9.05392 13.5325 7.65194 13.6625C7.08856 13.7146 6.43393 13.418 6.18724 12.9988C5.80909 12.3562 6.04535 11.5405 6.71479 11.1774C7.16384 10.9337 7.92638 10.944 8.34699 11.1995ZM21.1216 11.2188C22.2424 11.8964 21.8033 13.5023 20.4531 13.6633C19.9652 13.7216 19.245 13.4578 19.0061 13.1333C18.499 12.4446 18.8054 11.3801 19.595 11.0876C20.0148 10.9322 20.7522 10.9955 21.1216 11.2188Z" fill="#C3D135"/>
</svg>
