<svg width="145" height="114" viewBox="0 0 145 114" fill="none" xmlns="http://www.w3.org/2000/svg">
<g clip-path="url(#clip0_550_206)">
<path fill-rule="evenodd" clip-rule="evenodd" d="M42.2706 0.964062C39.7647 2.32129 38.501 5.14085 38.501 9.37573V12.9989L33.4317 13.0068C18.844 13.0289 7.38091 20.953 1.80536 34.8686L0.236173 38.7856L0.0451756 87.4211C-0.090223 121.736 0.0739543 137.368 0.602467 140.509C2.74072 153.227 13.1906 164.072 25.8965 166.76C32.4427 168.144 135.479 168.144 142.025 166.76C154.32 164.159 164.446 154.053 167.052 141.782C168.466 135.12 168.437 44.5794 167.018 38.5734C163.377 23.1595 150.46 12.9989 134.505 12.9989H129.421V9.37573C129.421 5.06185 128.137 2.28473 125.518 0.932726C123.108 -0.310909 121.997 -0.310909 119.588 0.932726C116.969 2.28473 115.685 5.06185 115.685 9.37573V12.9989H83.9609H52.2371V9.37573C52.2371 5.06185 50.9531 2.28473 48.3341 0.932726C45.963 -0.290671 44.575 -0.28349 42.2706 0.964062ZM38.6096 33.9442L38.8281 41.8336L40.9643 43.7366C44.2911 46.7017 48.5918 46.0509 50.9263 42.2292C52.0173 40.4431 52.2325 38.9357 52.2345 33.0733L52.2371 26.0554H83.906H115.576L115.793 33.8763C116 41.2872 116.101 41.7859 117.711 43.3912C118.751 44.4286 120.426 45.2211 122.033 45.4359C124.293 45.7388 124.964 45.5129 126.875 43.8104L129.094 41.8336L129.314 33.8554L129.535 25.8772L134.874 26.31C141.489 26.8467 146.022 28.8972 149.625 32.9832C152.928 36.7272 154.277 40.7153 154.277 46.7357V51.5157H83.9609H13.6452V46.7357C13.6452 40.8844 14.9501 36.8493 17.9871 33.3083C22.1551 28.4481 27.2649 26.3355 35.3391 26.1325L38.3918 26.0554L38.6096 33.9442ZM154.133 102.599C153.951 140.369 153.94 140.645 152.509 143.314C150.296 147.443 148.166 149.648 144.356 151.755L140.868 153.683H83.9609H27.0543L23.5659 151.755C19.7558 149.648 17.6261 147.443 15.4126 143.314C13.9821 140.645 13.971 140.369 13.7885 102.599L13.6047 64.5722H83.9609H154.317L154.133 102.599ZM35.4614 84.7615C32.6265 86.4869 31.5669 89.7876 32.8574 92.8709C34.3612 96.4634 36.5479 97.2142 45.4999 97.2109C51.9552 97.209 53.5551 97.004 55.2767 95.9562C58.1116 94.2308 59.1712 90.9301 57.8807 87.8468C56.3769 84.2543 54.1902 83.5035 45.2382 83.5068C38.7829 83.5087 37.183 83.7137 35.4614 84.7615ZM74.0533 84.7615C71.2184 86.4869 70.1588 89.7876 71.4493 92.8709C72.9472 96.4491 75.1502 97.2135 83.9609 97.2135C94.1479 97.2135 96.8467 95.778 96.8467 90.3588C96.8467 84.9182 94.159 83.5035 83.8301 83.5068C77.3748 83.5087 75.7749 83.7137 74.0533 84.7615ZM112.645 84.7615C109.81 86.4869 108.751 89.7876 110.041 92.8709C111.545 96.4634 113.732 97.2142 122.684 97.2109C129.139 97.209 130.739 97.004 132.46 95.9562C135.295 94.2308 136.355 90.9301 135.064 87.8468C133.561 84.2543 131.374 83.5035 122.422 83.5068C115.967 83.5087 114.367 83.7137 112.645 84.7615ZM35.4614 123.278C30.9632 126.016 31.3785 132.778 36.1672 134.775C37.6886 135.409 40.7819 135.73 45.3691 135.73C49.9563 135.73 53.0495 135.409 54.5709 134.775C59.3596 132.778 59.775 126.016 55.2767 123.278C52.2482 121.435 38.4899 121.435 35.4614 123.278ZM74.0533 123.278C71.2184 125.004 70.1588 128.304 71.4493 131.388C72.9322 134.93 75.1764 135.73 83.6221 135.73C93.9275 135.73 96.8467 134.217 96.8467 128.876C96.8467 123.435 94.159 122.02 83.8301 122.024C77.3748 122.025 75.7749 122.23 74.0533 123.278ZM112.645 123.278C108.147 126.016 108.562 132.778 113.351 134.775C114.872 135.409 117.966 135.73 122.553 135.73C127.14 135.73 130.233 135.409 131.755 134.775C136.543 132.778 136.959 126.016 132.46 123.278C129.432 121.435 115.674 121.435 112.645 123.278Z" fill="#CCD94A"/>
</g>
<defs>
<clipPath id="clip0_550_206">
<rect width="145" height="114" fill="white"/>
</clipPath>
</defs>
</svg>
