<svg width="17" height="20" viewBox="0 0 17 20" fill="none" xmlns="http://www.w3.org/2000/svg">
<path fill-rule="evenodd" clip-rule="evenodd" d="M3.12748 0.146423C1.62297 0.619321 0.566366 1.70788 0.181676 3.1812C-0.0605588 4.10903 -0.0605588 15.9432 0.181676 16.871C0.516001 18.1513 1.29834 19.0779 2.54797 19.6735L3.23285 20H8.50112H13.7694L14.4543 19.6735C15.7039 19.0779 16.4862 18.1513 16.8206 16.871C17.0525 15.9825 17.0629 7.55436 16.8325 7.12271C16.7498 6.96762 15.1241 5.30151 13.22 3.42037L9.75813 0L6.65354 0.00699753C4.4553 0.0119061 3.42588 0.0526371 3.12748 0.146423ZM8.44844 3.11123C8.44844 4.76846 8.59953 5.5082 9.1114 6.35645C9.54129 7.06872 10.1112 7.56366 10.9772 7.9764C11.6473 8.29587 11.7 8.3036 13.427 8.33775L15.1918 8.37274L15.1895 12.4109C15.187 16.8848 15.1833 16.9114 14.4776 17.611C13.7352 18.3468 13.8841 18.329 8.50112 18.329H3.65431L3.19323 18.0851C2.62436 17.7843 2.26254 17.4121 2.00914 16.8668C1.82727 16.4753 1.81505 16.0453 1.81505 10.0261C1.81505 4.00689 1.82727 3.57692 2.00914 3.18538C2.33377 2.487 2.90474 2.01023 3.70636 1.76856C3.85156 1.7248 4.97802 1.68491 6.20942 1.68L8.44844 1.67102V3.11123ZM12.1374 4.86611L13.9801 6.7035L13.0318 6.66026C11.1274 6.57347 10.2468 5.69922 10.242 3.89034C10.2407 3.4165 10.252 3.02872 10.2672 3.02872C10.2822 3.02872 11.1239 3.85556 12.1374 4.86611ZM4.64274 7.62475C4.54897 7.67906 4.41284 7.86559 4.34024 8.03927C4.18567 8.40909 4.34266 8.92031 4.66276 9.09013C4.909 9.22078 7.0357 9.22078 7.28194 9.09013C7.38604 9.03488 7.53092 8.84689 7.60383 8.67238C7.75903 8.30099 7.60278 7.79029 7.28194 7.62005C7.03844 7.49086 4.86717 7.49473 4.64274 7.62475ZM4.64274 10.9668C4.54897 11.0211 4.41284 11.2076 4.34024 11.3813C4.18567 11.7511 4.34266 12.2623 4.66276 12.4322C4.91459 12.5657 12.0877 12.5657 12.3395 12.4322C12.6603 12.2619 12.8166 11.7512 12.6614 11.3798C12.5885 11.2053 12.4436 11.0173 12.3395 10.9621C12.0905 10.83 4.87128 10.8344 4.64274 10.9668ZM4.64274 14.3088C4.54897 14.3631 4.41284 14.5497 4.34024 14.7233C4.18567 15.0932 4.34266 15.6044 4.66276 15.7742C4.91459 15.9078 12.0877 15.9078 12.3395 15.7742C12.6603 15.604 12.8166 15.0933 12.6614 14.7219C12.5885 14.5474 12.4436 14.3594 12.3395 14.3041C12.0905 14.172 4.87128 14.1764 4.64274 14.3088Z" fill="#C5D335"/>
</svg>
