<svg width="68" height="78" viewBox="0 0 68 78" fill="none" xmlns="http://www.w3.org/2000/svg">
<path d="M14.1623 51.305C12.8996 50.2815 12.087 48.8032 11.8954 47.1809L10.1496 32.4012C9.72431 28.8007 12.4098 25.5511 16.0253 25.2913L30.504 24.2507C32.0913 24.1367 33.6569 24.6274 34.8872 25.6246L62.735 48.1962C65.4296 50.3802 65.8249 54.358 63.618 57.0808L50.8308 72.8571C48.6239 75.5799 44.6504 76.0166 41.9558 73.8326L14.1623 51.305Z" fill="#E7F369"/>
<circle cx="18" cy="33" r="3" fill="white"/>
<path fill-rule="evenodd" clip-rule="evenodd" d="M11.4619 1.00138C21.6109 0.227129 29.6725 10.0054 28.9988 20.0334C28.8605 22.0915 27.9666 24.1139 26.7445 25.97C25.52 27.8296 23.945 29.5539 22.3987 31.0221C20.8509 32.4917 19.3213 33.7144 18.1794 34.5694C17.6081 34.9972 17.1329 35.3336 16.7997 35.5636C16.6331 35.6786 16.5019 35.7671 16.412 35.8271C16.367 35.8571 16.3323 35.88 16.3086 35.8955L16.2814 35.9133L16.2742 35.918L16.2722 35.9193C16.2722 35.9193 16.2713 35.9199 15.9999 35.4999L15.7285 35.08L15.73 35.079L15.7358 35.0753L15.76 35.0595C15.7816 35.0452 15.8143 35.0237 15.8571 34.9951C15.9429 34.9379 16.0696 34.8525 16.2316 34.7407C16.5555 34.517 17.0202 34.1881 17.58 33.7689C18.7005 32.9299 20.1982 31.7324 21.7102 30.2969C23.2237 28.8598 24.7411 27.1941 25.9093 25.4201C27.0797 23.6425 27.8787 21.7877 28.001 19.9664C28.6427 10.415 20.9557 1.28002 11.5379 1.99848C9.76899 2.13343 8.00299 2.96358 6.32903 4.17975C4.65831 5.39357 3.11209 6.96807 1.78861 8.53902C1.65893 8.69295 1.53149 8.84673 1.40637 9H0.999755H0.125732C0.411445 8.63579 0.711215 8.2658 1.02384 7.89472C2.37747 6.28798 3.9823 4.64865 5.74125 3.37073C7.49696 2.09517 9.43923 1.15568 11.4619 1.00138Z" fill="#C2C5A6"/>
</svg>
