<svg width="31" height="31" viewBox="0 0 31 31" fill="none" xmlns="http://www.w3.org/2000/svg">
<circle cx="15.5" cy="15.5" r="15.5" fill="white"/>
<path d="M15.5806 7.01004C11.3348 7.20993 7.98529 10.7201 7.99808 14.9396C8.00019 16.1816 8.29755 17.4053 8.86564 18.5098L8.01967 22.5885C8.00935 22.6395 8.01205 22.6923 8.02753 22.7419C8.04301 22.7916 8.07076 22.8366 8.10822 22.8727C8.14568 22.9088 8.19164 22.9349 8.24185 22.9485C8.29206 22.9621 8.3449 22.9629 8.39548 22.9507L12.4206 22.004C13.4867 22.5308 14.657 22.8128 15.8461 22.8292C20.1855 22.8955 23.8028 19.4749 23.938 15.1691C24.0835 10.5514 20.2462 6.78855 15.5806 7.00924V7.01004ZM20.3838 19.2974C19.8037 19.8754 19.1152 20.3333 18.3578 20.6448C17.6004 20.9562 16.789 21.1152 15.97 21.1125C15.0065 21.1154 14.0555 20.8942 13.1922 20.4664L12.6317 20.1889L10.1634 20.7694L10.6831 18.2659L10.4065 17.7286C9.95796 16.8592 9.72539 15.8946 9.7284 14.9164C9.7284 13.2613 10.3777 11.7044 11.5563 10.5346C12.731 9.37179 14.3171 8.71928 15.97 8.71877C17.638 8.71877 19.2052 9.36324 20.3838 10.5338C20.9644 11.1061 21.4252 11.7883 21.7392 12.5406C22.0532 13.293 22.2141 14.1004 22.2124 14.9156C22.2124 16.5564 21.5528 18.138 20.3838 19.2982V19.2974Z" fill="#2DC02A"/>
<path d="M19.8391 16.6317L18.2951 16.1919C18.1955 16.1633 18.09 16.1621 17.9897 16.1882C17.8894 16.2144 17.798 16.267 17.725 16.3407L17.3476 16.7229C17.2695 16.802 17.1698 16.8563 17.061 16.879C16.9522 16.9018 16.8392 16.892 16.7359 16.8508C16.0059 16.5574 14.4691 15.2012 14.0765 14.5224C14.0214 14.4265 13.9963 14.3164 14.0043 14.2061C14.0122 14.0958 14.053 13.9905 14.1212 13.9035L14.4507 13.4797C14.5141 13.3985 14.5542 13.3016 14.5668 13.1993C14.5793 13.0971 14.5638 12.9933 14.5218 12.8992L13.8726 11.4408C13.8358 11.3592 13.7807 11.2874 13.7115 11.2307C13.6423 11.1741 13.5609 11.1343 13.4737 11.1145C13.3866 11.0947 13.296 11.0953 13.2091 11.1164C13.1222 11.1375 13.0414 11.1785 12.973 11.2361C12.542 11.5983 12.0303 12.1476 11.9687 12.7577C11.8592 13.8315 12.323 15.1853 14.0773 16.8116C16.1042 18.6899 17.7282 18.9385 18.7845 18.6835C19.3842 18.5395 19.8639 17.9614 20.1654 17.4889C20.2136 17.4138 20.2435 17.3285 20.2527 17.2398C20.2619 17.151 20.2502 17.0614 20.2185 16.978C20.1868 16.8946 20.1359 16.8199 20.07 16.7597C20.0041 16.6996 19.925 16.6557 19.8391 16.6317Z" fill="#2DC02A"/>
</svg>
