<svg width="70" height="70" viewBox="0 0 70 70" fill="none" xmlns="http://www.w3.org/2000/svg">
<circle cx="35" cy="35" r="35" fill="white"/>
<path fill-rule="evenodd" clip-rule="evenodd" d="M25.7887 24.2418L17.0743 30.5861L17.0372 32.9273L17 35.2685H18.2286H19.4572V43.6343V52H34.5031H49.5491V43.6343V35.2685H50.7745H52V33.0253V30.7822L50.2299 29.4922L48.4598 28.2021V24.164V20.126L45.0217 20.1614L41.5836 20.1969L41.5449 21.6278L41.5062 23.0588L38.1408 20.5816C36.2899 19.219 34.7142 18.0578 34.6393 18.0009C34.562 17.9421 30.7423 20.6355 25.7887 24.2418ZM42.2452 26.1724L49.8153 31.7496L49.8184 32.5131L49.8214 33.2767H49.0499H48.2785L41.7993 28.5406C38.2358 25.9358 35.1357 23.6691 34.9105 23.5033L34.501 23.2022L27.4897 28.2348C20.5888 33.1881 20.4681 33.2674 19.8254 33.272L19.1725 33.2767L19.2126 32.4184L19.2529 31.5601L26.81 26.0499C30.9663 23.0192 34.4363 20.5521 34.521 20.5674C34.6057 20.5828 38.0816 23.105 42.2452 26.1724ZM46.2812 24.3864C46.2812 26.1366 46.2484 26.4986 46.0979 26.4114C45.9971 26.353 45.417 25.9467 44.8089 25.5085L43.7031 24.7117L43.6986 23.4834L43.6941 22.2551H44.9876H46.2812V24.3864ZM39.9272 29.7245L45.2399 33.6086L42.2885 33.6445L39.3369 33.6802V35.7359V37.7915H37.298H35.2591L35.2215 39.8166L35.1839 41.8416L33.1075 41.8782L31.031 41.9149V43.9033V45.8917H28.9886H26.9461V47.8835V49.8754H24.2229H21.4996V42.4723V35.0693L27.9333 30.4565C31.4719 27.9195 34.4227 25.843 34.4906 25.842C34.5587 25.8412 37.0051 27.5882 39.9272 29.7245ZM47.5066 36.7956V37.7915H44.443H41.3793V36.7956V35.7997H44.443H47.5066V36.7956ZM43.4218 40.8457V41.908H40.3581H37.2945V40.8457V39.7834H40.3581H43.4218V40.8457ZM47.5066 40.8457V41.908H46.4854H45.4642V40.8457V39.7834H46.4854H47.5066V40.8457ZM39.3369 44.8958V45.8917H36.2732H33.2096V44.8958V43.8998H36.2732H39.3369V44.8958ZM47.5066 44.8958V45.8917H44.443H41.3793V44.8958V43.8998H44.443H47.5066V44.8958ZM35.252 48.9458V49.8754H32.1884H29.1247V48.9458V48.0163H32.1884H35.252V48.9458ZM43.4218 48.9458V49.8754H40.3581H37.2945V48.9458V48.0163H40.3581H43.4218V48.9458ZM47.5066 48.9458V49.8754H46.4854H45.4642V48.9458V48.0163H46.4854H47.5066V48.9458Z" fill="#BABABA"/>
<path fill-rule="evenodd" clip-rule="evenodd" d="M54.8831 1.32835C51.7993 2.23042 50.2976 2.70807 50.1771 2.82554C50.0034 2.99455 50 3.10088 50 8.28234V13.5667L50.2461 14.2442C50.7027 15.5013 51.3734 16.4375 52.7408 17.7267C53.6961 18.6273 54.8264 19.4757 56.1666 20.298C57.1724 20.9152 59.2971 22 59.5 22C59.7029 22 61.8276 20.9152 62.8334 20.298C64.1736 19.4757 65.3039 18.6273 66.2592 17.7267C67.6266 16.4375 68.2973 15.5013 68.7539 14.2442L69 13.5667V8.28234C69 3.10114 68.9966 2.99455 68.8229 2.82554C68.7022 2.7079 67.1988 2.2311 64.0912 1.32476C61.5862 0.594187 59.5085 -0.00196433 59.4743 4.86445e-06C59.4401 0.00197406 57.374 0.599752 54.8831 1.32835Z" fill="#FF3838"/>
</svg>
