<svg width="21" height="21" viewBox="0 0 21 21" fill="none" xmlns="http://www.w3.org/2000/svg">
<path fill-rule="evenodd" clip-rule="evenodd" d="M9.59576 0.00816222C7.09912 0.298509 5.23722 1.11293 3.45525 2.6941C1.81764 4.14719 0.614717 6.24343 0.188657 8.38664C0.0177559 9.24646 0 9.44538 0 10.5028C0 11.5602 0.0177559 11.7592 0.188657 12.619C0.808388 15.7362 2.95805 18.5207 5.83496 19.9326C6.91121 20.4608 7.7757 20.7274 9.12309 20.9465C9.3316 20.9804 9.8353 21 10.5 21C11.5577 21 11.7567 20.9822 12.6167 20.8114C15.7348 20.1918 18.52 18.0427 19.9323 15.1666C20.4607 14.0906 20.7273 13.2264 20.9465 11.8793C20.9804 11.6709 21 11.1673 21 10.5028C21 9.44538 20.9822 9.24646 20.8113 8.38664C20.0189 4.40072 16.8818 1.19342 12.8387 0.235764C12.1747 0.0784684 11.6037 0.0171611 10.685 0.00446406C10.165 -0.00272681 9.67488 -0.0010421 9.59576 0.00816222ZM11.3956 1.95833C12.9586 2.12852 14.4629 2.72874 15.729 3.6873C16.1661 4.01824 16.9863 4.83825 17.3173 5.27525C19.6807 8.39506 19.6807 12.6106 17.3173 15.7304C16.9863 16.1674 16.1661 16.9874 15.729 17.3183C12.6083 19.681 8.39169 19.681 5.27104 17.3183C4.83393 16.9874 4.0137 16.1674 3.68267 15.7304C1.31932 12.6106 1.31932 8.39506 3.68267 5.27525C4.0137 4.83825 4.83393 4.01824 5.27104 3.6873C6.51548 2.74513 8.03735 2.13156 9.55466 1.9603C10.0058 1.90939 10.937 1.90836 11.3956 1.95833ZM10.2626 4.46457C10.1658 4.48388 9.99272 4.55082 9.87789 4.61332C8.9674 5.10871 9.03181 6.46367 9.98623 6.89303C10.2726 7.02185 10.7274 7.02185 11.0138 6.89303C11.7913 6.54327 12.0181 5.52952 11.4638 4.88213C11.1968 4.57017 10.6631 4.38469 10.2626 4.46457ZM10.1092 8.99687C9.87008 9.10823 9.66901 9.31997 9.58984 9.54391C9.54484 9.67117 9.53411 10.2912 9.53411 12.7628C9.53411 15.7081 9.53711 15.8301 9.61372 15.9844C9.92359 16.6088 10.6986 16.7527 11.1768 16.2747C11.2483 16.2033 11.3425 16.0727 11.3863 15.9844C11.4629 15.8301 11.4659 15.7081 11.4659 12.7628C11.4659 10.2912 11.4552 9.67117 11.4102 9.54391C11.2858 9.1923 10.8735 8.90109 10.5 8.90109C10.3925 8.90109 10.2289 8.9412 10.1092 8.99687Z" fill="#C5D335"/>
</svg>
