<svg width="157" height="36" viewBox="0 0 157 36" fill="none" xmlns="http://www.w3.org/2000/svg">
<path fill-rule="evenodd" clip-rule="evenodd" d="M30.6955 12.5483L28.1372 10.0387L25.5794 12.5483L28.1372 15.058L30.695 17.5677L33.2533 15.0581L30.6955 12.5483ZM25.5794 7.52902L28.1372 10.0387L25.5794 12.5483L23.0215 10.0387L20.4635 7.52902L23.0215 5.01935L25.5794 7.52902ZM17.9056 0L20.4635 2.50967L17.9056 5.01935L15.3476 2.50967L17.9056 0ZM30.6955 22.587L28.1372 20.0774L25.5794 22.587L28.1372 25.0967L30.6955 22.587ZM15.3477 7.52902L12.7898 5.01935L10.2318 7.52902L7.67385 10.0387L10.2318 12.5483L12.7898 10.0387L15.3477 7.52902ZM15.3477 17.5677L12.7898 15.058L10.2318 17.5677L7.67385 20.0774L10.2318 22.587L12.7898 20.0774L15.3477 17.5677ZM7.67385 10.0387L10.2318 12.5483L7.6738 15.058L5.11586 12.5483L7.67385 10.0387ZM7.6738 15.058L5.11586 17.5677L2.55795 20.0774L0 17.5677L2.55795 15.058L5.11586 12.5483L7.6738 15.058ZM17.9056 25.0967L15.3477 27.6064L17.9056 30.116L20.4635 27.6064L17.9056 25.0967ZM20.4636 22.587L23.0215 25.0967L25.5794 27.6064L23.0215 30.116L20.4636 32.6257L17.9056 30.116L15.3477 32.6257L12.7898 30.116L10.2318 27.6064L12.7898 25.0967L15.3477 22.587L17.9056 20.0774L20.4636 22.587ZM7.67385 20.0774L10.2318 22.587L7.6738 25.0967L5.11586 22.587L7.67385 20.0774ZM17.9056 35.1354L20.4636 32.6257L17.9056 30.116L15.3477 32.6257L17.9056 35.1354ZM23.0215 20.0774L20.4636 22.587L17.9056 20.0774L20.4635 17.5677L17.9056 15.0581L20.4636 12.5484L23.0215 15.058L25.5794 17.5677L23.0215 20.0774ZM17.9056 10.0387L20.4636 12.5484L17.9056 15.0581L15.3477 12.5483L17.9056 10.0387ZM35.8111 17.5677L33.2533 15.0581L30.6955 17.5677L33.2533 20.0774L35.8111 17.5677Z" fill="#B4B4B4"/>
<path d="M48.3238 26.3854H43.9193V8.78387H57.1162V15.5474H52.7282V13.1886H48.3238V26.3854Z" fill="#B4B4B4"/>
<path d="M64.8198 13.1888V16.1578H69.2078V13.1888H64.8198ZM64.8198 21.9977H73.6123V26.3856H60.4154V8.78406H73.6123V19.5233H64.8198V21.9977Z" fill="#B4B4B4"/>
<path d="M90.1084 8.78406V26.3856H76.9115V8.78406H90.1084ZM81.316 13.1888V21.9977H85.7204V13.1888H81.316Z" fill="#B4B4B4"/>
<path d="M93.82 22.047L95.0573 8.78406H106.605V26.3856H102.217V13.1888H99.1318L97.8121 26.3856H92.2529V22.047H93.82Z" fill="#B4B4B4"/>
<path d="M123.101 8.78406V26.3856H109.904V8.78406H123.101ZM114.308 13.1888V21.9977H118.713V13.1888H114.308Z" fill="#B4B4B4"/>
<path d="M130.804 26.3856H126.4V8.78406H139.597V15.5476H135.209V13.1888H130.804V26.3856Z" fill="#B4B4B4"/>
<path d="M148.208 13.5186H157V26.3856H143.803V13.1888H141.576V8.78406H148.208V13.5186ZM148.208 21.9977H152.596V17.8733H148.208V21.9977Z" fill="#B4B4B4"/>
</svg>
