<svg width="37" height="36" viewBox="0 0 37 36" fill="none" xmlns="http://www.w3.org/2000/svg">
<path fill-rule="evenodd" clip-rule="evenodd" d="M12.7832 0.137255C11.7545 0.452232 11.176 1.1513 10.2888 3.15187C9.9552 3.90439 9.57686 4.68341 9.4481 4.88285C9.20025 5.26694 9.26354 5.25215 6.64615 5.54121C3.46225 5.8928 2.46406 7.52011 3.28318 11.0234C3.77499 13.1261 3.77614 13.1219 2.3813 14.3245C-0.788902 17.058 -0.793085 18.9211 2.36472 21.6518C3.73347 22.8355 3.7698 22.9366 3.36781 24.4469C2.76815 26.6997 2.81068 27.9478 3.52267 28.9971C4.17482 29.9579 5.15412 30.339 7.6207 30.5922C8.72227 30.7053 9.19708 30.8164 9.37024 31.0016C9.50116 31.1415 9.8821 31.8982 10.217 32.6833C11.2119 35.0158 11.9995 35.8114 13.481 35.9811C14.2914 36.0738 15.186 35.7469 16.8026 34.7672C17.5454 34.3169 18.2995 33.965 18.5215 33.965C18.7391 33.965 19.3767 34.2538 19.9384 34.6067C21.5225 35.6018 22.159 35.8871 22.9914 35.9742C23.6352 36.0417 23.8907 35.9902 24.5596 35.6579C25.5177 35.1817 26.0101 34.5165 26.826 32.5951C27.1389 31.8586 27.5076 31.139 27.6456 30.9959C27.8329 30.8015 28.3522 30.6845 29.7016 30.5326C31.6522 30.3131 32.4067 30.0705 33.0535 29.4544C34.0312 28.5233 34.2381 27.1119 33.7192 24.9135C33.2394 22.8811 33.2421 22.8715 34.6649 21.6412C36.8877 19.7191 37.4672 18.2469 36.6427 16.6178C36.303 15.9467 35.7806 15.3635 34.5493 14.2805C33.2645 13.1506 33.2681 13.1639 33.7202 11.1947C34.0834 9.61248 34.0892 8.3107 33.7361 7.53387C33.1617 6.26972 32.1627 5.77375 29.6128 5.48689C28.623 5.37545 27.7563 5.24864 27.6868 5.205C27.6172 5.16122 27.2444 4.38249 26.8583 3.47431C26.3136 2.19317 25.9941 1.65357 25.4325 1.0674C24.0721 -0.352856 23.0266 -0.317712 20.3081 1.2396C19.3977 1.76119 18.5815 2.18819 18.4943 2.18849C18.407 2.18878 17.7258 1.81479 16.9803 1.35733C14.8814 0.0693104 13.9191 -0.210376 12.7832 0.137255ZM15.3856 4.08552C16.8611 5.00629 18.1429 5.45423 18.9146 5.31893C19.694 5.18216 20.4566 4.83746 21.8567 3.98902C22.5969 3.54035 23.2267 3.19887 23.2561 3.23036C23.2857 3.26169 23.6763 4.07806 24.1243 5.04451C25.4999 8.01271 26.0603 8.37103 29.8617 8.71397C30.3962 8.76215 30.8684 8.85894 30.9112 8.92923C30.9539 8.99937 30.8249 9.78015 30.6243 10.6643C29.9031 13.8448 30.1795 14.702 32.5979 16.7859C33.2945 17.3862 33.8644 17.9327 33.8644 18.0002C33.8644 18.0678 33.2904 18.6399 32.589 19.2715C31.8875 19.9032 31.0926 20.7421 30.8227 21.1359C30.3489 21.8269 30.3323 21.8982 30.3427 23.1859C30.3499 24.0707 30.4619 24.934 30.6755 25.7489C30.8719 26.499 30.9455 27.0305 30.8644 27.113C30.7913 27.1872 30.0576 27.3111 29.2341 27.3883C25.8296 27.7072 25.1803 28.2644 23.5751 32.2444C23.4532 32.5465 23.2822 32.7935 23.1951 32.7935C23.1079 32.7935 22.3753 32.3964 21.567 31.9111C19.8606 30.8865 19.2427 30.6834 18.1379 30.7842C17.2726 30.8631 16.6467 31.14 15.0118 32.1674C14.4365 32.5288 13.8786 32.7905 13.7721 32.749C13.6655 32.7074 13.4279 32.2886 13.2439 31.8183C11.9651 28.5483 11.1822 27.8224 8.60793 27.5205C6.00799 27.2156 6.03668 27.2215 6.03668 26.9882C6.03668 26.8656 6.17712 26.2272 6.3487 25.5696C6.78111 23.9118 6.78846 22.2328 6.36672 21.4284C6.19312 21.0972 5.38294 20.1955 4.56642 19.4245L3.08175 18.023L4.75271 16.366C6.97244 14.1649 7.12009 13.6334 6.38229 10.5C6.17596 9.62347 6.04014 8.8727 6.08051 8.8317C6.12088 8.7907 6.85753 8.69376 7.71745 8.61645C11.1401 8.3085 11.6334 7.90552 13.2984 4.05609C13.4987 3.59307 13.7362 3.2141 13.826 3.2141C13.916 3.2141 14.6177 3.60625 15.3856 4.08552ZM23.9877 11.8121C23.8291 11.851 23.5455 12.0245 23.3574 12.1978C23.1167 12.4193 17.3928 19.2984 16.4634 20.4831C16.4362 20.5178 15.685 19.8189 14.7939 18.93C13.8139 17.9526 13.0122 17.2743 12.7648 17.2137C12.2049 17.0763 11.3799 17.5099 11.0315 18.1246C10.5383 18.9949 10.7822 19.3958 13.4314 22.0684C15.6848 24.3417 15.814 24.4466 16.3559 24.4417C16.6676 24.4388 17.0644 24.3565 17.2376 24.2587C17.559 24.0771 25.1692 14.9214 25.6619 14.1233C25.8111 13.8817 25.9334 13.5622 25.9337 13.4133C25.9347 12.8892 25.4789 12.1689 25.0002 11.9381C24.5036 11.6989 24.4669 11.6943 23.9877 11.8121Z" fill="#B4C13B"/>
</svg>
