<svg width="24" height="25" viewBox="0 0 24 25" fill="none" xmlns="http://www.w3.org/2000/svg">
<path fill-rule="evenodd" clip-rule="evenodd" d="M10.8089 0.162172C8.65349 0.728248 6.895 2.50034 6.34322 4.6627C5.51532 7.90668 7.57121 11.3154 10.8596 12.1511C11.7011 12.3651 13.0066 12.3648 13.8469 12.1507C16.0992 11.5769 17.9562 9.68274 18.4097 7.49649C18.5782 6.68459 18.5585 5.3316 18.368 4.61702C17.7791 2.40864 15.8597 0.555409 13.6992 0.10911C12.9019 -0.0555829 11.543 -0.030593 10.8089 0.162172ZM13.9308 2.0852C15.963 2.85813 17.1379 5.07818 16.6092 7.14575C16.2668 8.48443 15.4673 9.48833 14.2833 10.0665C11.6474 11.3536 8.55266 9.75342 8.03794 6.8375C7.646 4.61658 9.22468 2.33257 11.4757 1.86381C12.1474 1.724 13.2399 1.82253 13.9308 2.0852ZM18.304 11.7023C17.4576 12.0243 16.9988 12.3304 16.4076 12.9678C15.1143 14.3619 14.8734 16.2881 15.7804 17.9843L16.1039 18.5891V21.4937C16.1039 24.2655 16.1143 24.4116 16.3325 24.6884C16.7389 25.204 17.2123 25.1013 18.5001 24.2183L19.6086 23.4581L20.752 24.2181C21.9908 25.0415 22.3824 25.1444 22.8482 24.7682C23.108 24.5584 23.1088 24.5508 23.1638 21.493C23.2187 18.4447 23.2205 18.4252 23.5095 17.8777C24.4126 16.1663 24.0437 14.0504 22.6086 12.7108C21.7399 11.8998 21.0049 11.6094 19.7442 11.5787C19.0702 11.5623 18.5563 11.6064 18.304 11.7023ZM20.8226 13.6268C22.0454 14.2493 22.5159 15.7677 21.8804 17.0405C20.7081 19.3883 17.0967 18.55 17.0967 15.9304C17.0967 14.6759 17.7417 13.8073 18.9713 13.4055C19.4002 13.2654 20.3313 13.3767 20.8226 13.6268ZM5.98051 14.3015C4.42775 14.7075 2.82084 15.7287 1.801 16.9575C1.14817 17.7441 0.362198 19.3479 0.163195 20.2997C0.067885 20.7559 0.00136625 21.69 0.000152811 22.589C-0.00161219 24.0559 0.00754411 24.117 0.269094 24.3779L0.5398 24.6482H6.23313C9.66693 24.6482 12.0052 24.6061 12.1248 24.5423C12.4607 24.3628 12.6243 23.8245 12.4618 23.433C12.3855 23.2491 12.2338 23.0509 12.1248 22.9927C12.006 22.9293 9.88115 22.8868 6.82837 22.8868H1.73029L1.80155 21.9235C1.93459 20.1287 2.399 18.9875 3.45756 17.8551C4.19709 17.0637 5.03403 16.5202 6.06545 16.1615C6.71078 15.937 7.03068 15.9081 9.26451 15.8726C10.6296 15.8509 11.8573 15.8095 11.9927 15.7805C12.305 15.7136 12.6137 15.1338 12.5249 14.7806C12.4881 14.6342 12.36 14.4167 12.2402 14.2971C12.0351 14.0925 11.8684 14.08 9.4024 14.0857C7.19372 14.0908 6.65661 14.1247 5.98051 14.3015ZM19.6339 20.1896C20.1496 20.1896 20.7328 20.1485 20.93 20.0983L21.2885 20.007V21.1844V22.3616L20.9852 22.1661C20.8184 22.0587 20.509 21.8548 20.2977 21.7131C20.0865 21.5715 19.7877 21.4556 19.6339 21.4556C19.48 21.4556 19.1812 21.5715 18.97 21.7131C18.7587 21.8548 18.4493 22.0587 18.2825 22.1661L17.9792 22.3616V21.1844V20.007L18.3377 20.0983C18.5348 20.1485 19.1181 20.1896 19.6339 20.1896Z" fill="#B8C53B"/>
</svg>
