<svg width="19" height="23" viewBox="0 0 19 23" fill="none" xmlns="http://www.w3.org/2000/svg">
<path fill-rule="evenodd" clip-rule="evenodd" d="M9.37952e-06 6.9992C9.37952e-06 14.6958 -0.00963386 14.5545 0.589486 15.679C1.17973 16.7867 2.99447 18.7491 4.63448 20.0529C5.97135 21.1157 7.5811 22.1135 8.99187 22.754L9.534 23L10.7582 22.4026C12.2423 21.6783 13.034 21.1998 14.2261 20.3062C15.8083 19.1201 17.8315 16.9257 18.4363 15.7398C18.5428 15.531 18.7131 15.0345 18.815 14.6363C18.9897 13.9526 19 13.5261 19 6.9609V0.00945596L17.9736 0.440137C15.1334 1.63217 13.39 1.72626 11.1099 0.810738C10.6827 0.639191 10.1556 0.392952 9.93872 0.263624L9.5444 0.0283679L8.55402 0.52505C5.89545 1.85826 3.99841 1.79216 0.549004 0.246048L9.37952e-06 0V6.9992ZM11.6835 2.95507C13.0911 3.35021 14.7771 3.35451 16.2948 2.96681C16.7236 2.85726 17.1012 2.76757 17.1338 2.76757C17.1665 2.76757 17.1808 5.31421 17.1656 8.42688C17.1387 13.9897 17.1347 14.0949 16.9302 14.5938C16.3914 15.9089 14.3555 18.034 12.3258 19.4002C11.3082 20.0851 9.76094 20.9156 9.50249 20.9156C9.28088 20.9156 7.63906 19.9772 6.70586 19.3172C4.80137 17.9702 2.76236 15.8989 2.16992 14.7092L1.86182 14.0905L1.83508 8.42907C1.82029 5.31526 1.84492 2.76757 1.8896 2.76757C1.93438 2.76757 2.16123 2.83118 2.39382 2.90884C3.01557 3.11658 4.42519 3.34066 5.11005 3.34066C6.23583 3.34066 8.00072 2.88935 9.11351 2.31683L9.49093 2.12274L10.2261 2.43756C10.6305 2.61073 11.2863 2.8436 11.6835 2.95507ZM11.0995 9.66791L8.49845 12.27L7.04013 10.8133L5.58171 9.35672L4.93991 10.0037L4.29811 10.6509L6.39795 12.7499L8.49778 14.849L11.7439 11.6026C13.5292 9.81711 14.99 8.31436 14.99 8.26307C14.99 8.13756 13.924 7.06578 13.7993 7.06578C13.745 7.06578 12.5301 8.2367 11.0995 9.66791Z" fill="#B5C23B"/>
</svg>
