<svg width="19" height="22" viewBox="0 0 19 22" fill="none" xmlns="http://www.w3.org/2000/svg">
<path fill-rule="evenodd" clip-rule="evenodd" d="M3.49542 0.161065C1.81391 0.681253 0.632997 1.87867 0.20305 3.49932C-0.0676834 4.51994 -0.0676834 17.5375 0.20305 18.5581C0.576707 19.9665 1.45109 20.9857 2.84774 21.6409L3.61318 22H9.50125H15.3893L16.1548 21.6409C17.5514 20.9857 18.4258 19.9665 18.7995 18.5581C19.0587 17.5807 19.0703 8.3098 18.8128 7.83499C18.7203 7.66439 16.9034 5.83167 14.7753 3.7624L10.9061 0L7.43631 0.00769728C4.97945 0.0130968 3.82892 0.0579008 3.49542 0.161065ZM9.44237 3.42235C9.44237 5.24531 9.61124 6.05902 10.1833 6.99209C10.6638 7.77559 11.3008 8.32002 12.2686 8.77404C13.0176 9.12546 13.0765 9.13396 15.0066 9.17153L16.9791 9.21002L16.9765 13.6519C16.9737 18.5733 16.9696 18.6026 16.1808 19.3721C15.3511 20.1815 15.5176 20.1619 9.50125 20.1619H4.08423L3.56891 19.8936C2.93311 19.5628 2.52872 19.1533 2.2455 18.5535C2.04225 18.1228 2.02859 17.6499 2.02859 11.0287C2.02859 4.40758 2.04225 3.93461 2.2455 3.50392C2.60833 2.7357 3.24648 2.21126 4.14241 1.94542C4.30468 1.89728 5.56367 1.8534 6.93994 1.848L9.44237 1.83812V3.42235ZM13.5653 5.35272L15.6248 7.37385L14.565 7.32629C12.4365 7.23082 11.4523 6.26914 11.4469 4.27937C11.4455 3.75815 11.4581 3.33159 11.4751 3.33159C11.4919 3.33159 12.4326 4.24112 13.5653 5.35272ZM5.18895 8.38723C5.08414 8.44697 4.93199 8.65215 4.85086 8.8432C4.6781 9.24999 4.85357 9.81234 5.21132 9.99914C5.48653 10.1429 7.86343 10.1429 8.13864 9.99914C8.25499 9.93837 8.41691 9.73158 8.4984 9.53961C8.67186 9.13109 8.49722 8.56932 8.13864 8.38206C7.86649 8.23995 5.43978 8.2442 5.18895 8.38723ZM5.18895 12.0635C5.08414 12.1232 4.93199 12.3284 4.85086 12.5194C4.6781 12.9262 4.85357 13.4886 5.21132 13.6754C5.49277 13.8223 13.5097 13.8223 13.7912 13.6754C14.1498 13.4881 14.3244 12.9264 14.1509 12.5178C14.0695 12.3259 13.9075 12.1191 13.7912 12.0583C13.5129 11.913 5.44437 11.9178 5.18895 12.0635ZM5.18895 15.7397C5.08414 15.7994 4.93199 16.0046 4.85086 16.1957C4.6781 16.6025 4.85357 17.1648 5.21132 17.3516C5.49277 17.4986 13.5097 17.4986 13.7912 17.3516C14.1498 17.1644 14.3244 16.6026 14.1509 16.1941C14.0695 16.0021 13.9075 15.7953 13.7912 15.7345C13.5129 15.5892 5.44437 15.594 5.18895 15.7397Z" fill="#B8C53B"/>
</svg>
