<svg width="16" height="16" viewBox="0 0 16 16" fill="none" xmlns="http://www.w3.org/2000/svg">
<path fill-rule="evenodd" clip-rule="evenodd" d="M3.11491 0.174111C2.38911 0.595297 0.679288 2.5716 0.173129 3.5745C-0.0277367 3.97244 -0.0292019 3.98303 0.0451236 4.48781C0.137697 5.11656 0.537497 6.34002 0.897669 7.09686C2.27509 9.99127 5.01561 12.9091 7.93608 14.5905C9.14241 15.285 10.4959 15.8012 11.5104 15.9535C12.0161 16.0295 12.0249 16.0283 12.4235 15.827C13.4492 15.3092 15.4666 13.5495 15.8498 12.8385C16.0596 12.4492 16.0516 12.2317 15.8132 11.8391C15.6388 11.552 13.7347 10.284 12.7182 9.77818C11.7606 9.30164 11.3367 9.24415 10.9563 9.53931C10.8226 9.64309 10.5259 9.94744 10.297 10.2157C9.81979 10.7748 9.85209 10.77 9.05789 10.3973C7.58523 9.7059 6.2932 8.41364 5.60195 6.94072C5.22926 6.14638 5.22453 6.17868 5.78351 5.70141C6.0517 5.47247 6.356 5.17571 6.45976 5.04196C6.75487 4.66154 6.69739 4.23749 6.22093 3.27975C5.71737 2.26752 4.44784 0.359358 4.16033 0.182638C3.76833 -0.0584299 3.51924 -0.0604282 3.11491 0.174111ZM3.86443 1.49768C4.25963 2.0479 4.74302 2.84537 5.17059 3.65264L5.57671 4.4194L5.1247 4.80895C4.44438 5.39513 4.10659 5.77415 4.10659 5.95127C4.10659 6.21392 4.43219 7.09826 4.7542 7.70995C5.7263 9.55683 7.49612 11.0888 9.39349 11.7259C9.66708 11.8178 9.96125 11.8929 10.0472 11.8929C10.2243 11.8929 10.6032 11.555 11.1893 10.8746L11.5788 10.4225L12.3454 10.8287C13.4776 11.4286 14.8292 12.2965 14.8292 12.4236C14.8292 12.5254 13.4531 13.7989 12.8714 14.2356C11.8903 14.972 11.952 14.9539 11.1317 14.7437C6.97851 13.6797 2.32011 9.02047 1.25624 4.86657C1.04612 4.04611 1.02807 4.1078 1.76433 3.12654C2.2009 2.54475 3.47422 1.16842 3.57598 1.16842C3.60456 1.16842 3.73436 1.31663 3.86443 1.49768Z" fill="white"/>
</svg>
