<svg width="77" height="92" viewBox="0 0 77 92" fill="none" xmlns="http://www.w3.org/2000/svg">
<path fill-rule="evenodd" clip-rule="evenodd" d="M34.5629 2.35391C26.0298 9.476 18.2721 12.4355 6.25227 13.1546C2.59001 13.3738 1.89427 13.5168 1.07784 14.2194L0.134259 15.0309L0.0207553 27.5504C-0.123278 43.4556 0.446749 49.551 2.85509 57.8594C7.20339 72.8593 17.7828 84.028 33.7009 90.4231C35.8596 91.2902 38.0424 92 38.551 92C39.8142 92 46.1614 89.4474 49.8815 87.4435C62.8955 80.4332 71.317 69.7457 74.8075 55.8106C76.8086 47.8231 77 45.5422 77 29.7077V15.0323L76.0564 14.2201C75.2396 13.5165 74.5461 13.3738 70.882 13.1546C58.8622 12.4355 51.1045 9.476 42.5713 2.35391C40.3523 0.502047 39.4985 0 38.5671 0C37.6358 0 36.782 0.502047 34.5629 2.35391ZM53.9888 34.2096C55.0958 35.4333 55.9582 36.5294 55.9047 36.6451C55.7671 36.9441 37.3754 54.2523 35.9354 55.4379C34.652 56.4948 32.8654 56.7277 31.9222 55.9612C31.6259 55.7204 29.0645 52.9744 26.2305 49.8593L21.0777 44.1952L22.9648 42.4921C24.0025 41.5552 25.1095 40.6058 25.4242 40.3819C25.9044 40.0408 26.6246 40.6654 29.8806 44.2452C32.0167 46.594 33.8751 48.5113 34.0105 48.5063C34.1459 48.5009 38.1361 44.7893 42.8774 40.2575C47.6186 35.7262 51.6056 32.011 51.737 32.0016C51.8685 31.9919 52.8821 32.9856 53.9888 34.2096Z" fill="#D9E842"/>
</svg>
