<svg width="8" height="15" viewBox="0 0 8 15" fill="none" xmlns="http://www.w3.org/2000/svg">
<path d="M2.99747 10.3975C2.98397 9.75593 3.04473 9.21897 3.17975 8.78661C3.32827 8.34031 3.51055 7.95676 3.72658 7.63598C3.95612 7.30126 4.19916 7.00837 4.4557 6.75732C4.72574 6.49233 4.97553 6.22734 5.20506 5.96234C5.4346 5.6834 5.62363 5.38354 5.77215 5.06276C5.93418 4.74198 6.01519 4.35146 6.01519 3.89121C6.01519 3.24965 5.83966 2.72664 5.48861 2.32218C5.13755 1.91771 4.62447 1.71548 3.94937 1.71548C3.23376 1.71548 2.68017 1.95955 2.28861 2.4477C1.91055 2.9219 1.70802 3.57741 1.68101 4.41423H0V3.89121C0.0945148 2.59414 0.51308 1.62483 1.2557 0.983263C2.01181 0.327754 2.94346 0 4.05063 0C4.60422 0 5.1173 0.0836818 5.58987 0.251045C6.07595 0.41841 6.49451 0.662482 6.84557 0.983263C7.21013 1.2901 7.49367 1.67364 7.6962 2.13389C7.89874 2.5802 8 3.08926 8 3.66109C8 4.26081 7.91224 4.77685 7.73671 5.2092C7.57468 5.64156 7.3654 6.03208 7.10886 6.38075C6.85232 6.71548 6.57553 7.02232 6.27848 7.30126C5.98144 7.56625 5.70464 7.85216 5.4481 8.159C5.20506 8.45188 4.99578 8.77964 4.82025 9.14226C4.64473 9.49093 4.55696 9.90934 4.55696 10.3975H2.99747ZM3.8076 15C3.41603 15 3.11224 14.8814 2.8962 14.6444C2.68017 14.3933 2.57215 14.1004 2.57215 13.7657C2.57215 13.4031 2.67342 13.1032 2.87595 12.8661C3.09198 12.6151 3.40253 12.4895 3.8076 12.4895C4.19916 12.4895 4.50295 12.6151 4.71899 12.8661C4.94852 13.1032 5.06329 13.4031 5.06329 13.7657C5.06329 14.1004 4.94852 14.3933 4.71899 14.6444C4.50295 14.8814 4.19916 15 3.8076 15Z" fill="white"/>
</svg>
