<svg width="15" height="15" viewBox="0 0 15 15" fill="none" xmlns="http://www.w3.org/2000/svg">
<circle cx="7.5" cy="7.5" r="7" fill="white" stroke="#282828"/>
<path d="M6.96998 8.89993C6.94998 8.59327 6.96998 8.33327 7.02998 8.11993C7.09665 7.9066 7.17998 7.71993 7.27998 7.55993C7.38665 7.39993 7.50331 7.25993 7.62998 7.13993C7.75665 7.01326 7.87665 6.88993 7.98998 6.76993C8.10331 6.64326 8.19665 6.5066 8.26998 6.35993C8.34331 6.21326 8.37998 6.03993 8.37998 5.83993C8.37998 5.55993 8.29998 5.3366 8.13998 5.16993C7.98665 4.9966 7.76998 4.90993 7.48998 4.90993C7.16998 4.90993 6.92331 5.01993 6.74998 5.23993C6.57665 5.45326 6.48331 5.73993 6.46998 6.09993H5.47998V5.81993C5.52665 5.21326 5.73665 4.7466 6.10998 4.41993C6.48998 4.09326 6.97331 3.92993 7.55998 3.92993C7.83998 3.92993 8.09998 3.97327 8.33998 4.05993C8.57998 4.13993 8.78665 4.2566 8.95998 4.40993C9.13998 4.56326 9.27998 4.74993 9.37998 4.96993C9.47998 5.18326 9.52998 5.4266 9.52998 5.69993C9.52998 5.9866 9.48665 6.23326 9.39998 6.43993C9.31998 6.6466 9.21665 6.82993 9.08998 6.98993C8.96998 7.14326 8.83665 7.2866 8.68998 7.41993C8.54998 7.55326 8.41665 7.68993 8.28998 7.82993C8.16998 7.96993 8.06665 8.1266 7.97998 8.29993C7.89998 8.4666 7.85998 8.6666 7.85998 8.89993H6.96998ZM7.41998 11.0999C7.20665 11.0999 7.04331 11.0366 6.92998 10.9099C6.81665 10.7833 6.75998 10.6299 6.75998 10.4499C6.75998 10.2633 6.81331 10.1066 6.91998 9.97993C7.03331 9.85327 7.19998 9.78993 7.41998 9.78993C7.63998 9.78993 7.80665 9.85327 7.91998 9.97993C8.03998 10.1066 8.09998 10.2633 8.09998 10.4499C8.09998 10.6299 8.03998 10.7833 7.91998 10.9099C7.79998 11.0366 7.63331 11.0999 7.41998 11.0999Z" fill="#282828"/>
</svg>
