<svg width="17" height="17" viewBox="0 0 17 17" fill="none" xmlns="http://www.w3.org/2000/svg">
<path id="&#208;&#161;&#208;&#189;&#208;&#184;&#208;&#188;&#208;&#190;&#208;&#186; &#209;&#141;&#208;&#186;&#209;&#128;&#208;&#176;&#208;&#189;&#208;&#176; 2023-09-13 &#208;&#178; 17.13 1 (Traced)" fill-rule="evenodd" clip-rule="evenodd" d="M4.18967 0.0575328C3.86687 0.151081 3.40668 0.709327 3.25197 1.19508C3.17973 1.42163 3.10261 1.6889 3.08051 1.78907L3.04036 1.97114H2.22676C1.20783 1.97114 0.844284 2.06873 0.47095 2.44239C-0.0200587 2.93383 0.00011634 2.63174 0.00011634 9.48547C0.00011634 16.3392 -0.0200587 16.0371 0.47095 16.5286C0.966126 17.0242 0.549797 16.9998 8.5 16.9998C16.4502 16.9998 16.0339 17.0242 16.529 16.5286C17.0201 16.0371 16.9999 16.3392 16.9999 9.48547C16.9999 2.63174 17.0201 2.93383 16.529 2.44239C16.1557 2.06873 15.7922 1.97114 14.7732 1.97114H13.9596L13.9195 1.78907C13.6456 0.547851 13.021 -0.113873 12.2528 0.0235032C12.0745 0.0554143 11.9117 0.163727 11.6674 0.412924C11.3407 0.746336 11.167 1.11444 11.0181 1.78907C10.9787 1.96783 10.969 1.97114 10.4844 1.97114C9.99982 1.97114 9.99009 1.96783 9.95067 1.78907C9.67675 0.547851 9.0522 -0.113873 8.28403 0.0235032C8.1057 0.0554143 7.94291 0.163727 7.69863 0.412924C7.37186 0.746336 7.19823 1.11444 7.04933 1.78907C7.00991 1.96783 7.00018 1.97114 6.51559 1.97114C6.031 1.97114 6.02128 1.96783 5.98185 1.78907C5.84718 1.17886 5.66005 0.761761 5.3819 0.452118C4.9993 0.0262175 4.67181 -0.0821609 4.18967 0.0575328ZM4.75291 1.32563C4.82679 1.48042 4.9071 1.6889 4.93137 1.78907L4.97549 1.97114H4.53118H4.08687L4.13099 1.78907C4.2064 1.47811 4.4395 1.04426 4.53118 1.04426C4.57927 1.04426 4.67902 1.17085 4.75291 1.32563ZM8.72172 1.32563C8.79561 1.48042 8.87591 1.6889 8.90019 1.78907L8.94431 1.97114H8.5H8.05569L8.09981 1.78907C8.17522 1.47811 8.40832 1.04426 8.5 1.04426C8.54809 1.04426 8.64784 1.17085 8.72172 1.32563ZM12.6905 1.32563C12.7644 1.48042 12.8447 1.6889 12.869 1.78907L12.9131 1.97114H12.4688H12.0245L12.0686 1.78907C12.144 1.47811 12.3771 1.04426 12.4688 1.04426C12.5169 1.04426 12.6167 1.17085 12.6905 1.32563ZM4.93137 3.21249C4.82911 3.63435 4.62677 3.94757 4.42826 3.9912C3.9268 4.10144 3.90504 4.85353 4.39982 4.9778C4.91206 5.1065 5.57042 4.55978 5.8104 3.80649C5.88263 3.57993 5.95976 3.31266 5.98185 3.21249L6.022 3.03043H7.48312H8.94431L8.90019 3.21249C8.79793 3.63435 8.59558 3.94757 8.39708 3.9912C7.89562 4.10144 7.87385 4.85353 8.36863 4.9778C8.88087 5.1065 9.53923 4.55978 9.77922 3.80649C9.85145 3.57993 9.92858 3.31266 9.95067 3.21249L9.99082 3.03043H11.4519H12.9131L12.869 3.21249C12.7667 3.63435 12.5644 3.94757 12.3659 3.9912C11.8644 4.10144 11.8427 4.85353 12.3374 4.9778C12.8497 5.1065 13.5081 4.55978 13.748 3.80649C13.8203 3.57993 13.8974 3.31266 13.9195 3.21249L13.9596 3.03043H14.8183C16.014 3.03043 15.9415 2.92589 15.9415 4.65246V6.00968H8.5H1.05847V4.65246C1.05847 3.3835 1.06707 3.28664 1.19076 3.16284C1.31664 3.03685 1.41123 3.03043 3.14924 3.03043H4.97549L4.93137 3.21249ZM15.9415 11.3392C15.9415 15.5874 15.9388 15.6784 15.8092 15.8081C15.6786 15.9389 15.5888 15.9405 8.5 15.9405C1.41123 15.9405 1.3214 15.9389 1.19076 15.8081C1.06118 15.6784 1.05847 15.5874 1.05847 11.3392V7.00276H8.5H15.9415V11.3392ZM2.19448 8.14904C2.05094 8.30198 2.05067 8.30833 2.05067 11.4851C2.05067 14.5203 2.05656 14.6752 2.17715 14.8242L2.30355 14.9805H8.5H14.6964L14.8229 14.8242C14.9434 14.6752 14.9493 14.5201 14.9493 11.4759V8.28377L14.7963 8.13978L14.6431 7.99585H8.49074H2.33834L2.19448 8.14904ZM5.02729 9.98201V10.9751H4.03508H3.04288V9.98201V8.98893H4.03508H5.02729V9.98201ZM8.0039 9.98201V10.9751H7.01169H6.01949V9.98201V8.98893H7.01169H8.0039V9.98201ZM10.9805 9.98201V10.9751H9.98831H8.9961V9.98201V8.98893H9.98831H10.9805V9.98201ZM13.9571 9.98201V10.9751H12.9649H11.9727V9.98201V8.98893H12.9649H13.9571V9.98201ZM5.02729 12.9613V13.9543H4.03508H3.04288V12.9613V11.9682H4.03508H5.02729V12.9613ZM8.0039 12.9613V13.9543H7.01169H6.01949V12.9613V11.9682H7.01169H8.0039V12.9613ZM10.9805 12.9613V13.9543H9.98831H8.9961V12.9613V11.9682H9.98831H10.9805V12.9613ZM13.9571 12.9613V13.9543H12.9649H11.9727V12.9613V11.9682H12.9649H13.9571V12.9613Z" fill="#B7C52F"/>
</svg>
