<svg width="21" height="17" viewBox="0 0 21 17" fill="none" xmlns="http://www.w3.org/2000/svg">
<path id="&#208;&#161;&#208;&#189;&#208;&#184;&#208;&#188;&#208;&#190;&#208;&#186; &#209;&#141;&#208;&#186;&#209;&#128;&#208;&#176;&#208;&#189;&#208;&#176; 2023-09-13 &#208;&#178; 17.12 1 (Traced)" fill-rule="evenodd" clip-rule="evenodd" d="M11.4573 0.0863784C10.4394 0.215516 9.76468 0.417577 8.7849 0.886722C7.78703 1.36459 6.83609 2.03761 6.64184 2.40368C6.39883 2.86156 6.76308 3.43642 7.29246 3.4306C7.50489 3.42824 7.76104 3.2992 8.18104 2.98326C8.88354 2.45454 9.6452 2.07448 10.5793 1.78651C11.4662 1.51316 13.3144 1.48546 14.2496 1.73157C16.2623 2.26119 18.0788 3.78033 18.9369 5.65164C19.3912 6.64242 19.5206 7.27794 19.5206 8.51946C19.5206 10.6312 18.8222 12.212 17.2466 13.6671C16.4743 14.3803 15.2719 15.0384 14.2496 15.3074C13.3147 15.5534 11.4662 15.5258 10.5798 15.2525C9.69507 14.9798 8.8356 14.5489 8.12933 14.024C7.74065 13.735 7.47706 13.605 7.27988 13.605C6.76188 13.605 6.40287 14.1849 6.64184 14.6352C6.95145 15.2186 9.03499 16.4261 10.2544 16.7288C14.2839 17.7289 18.3697 15.8996 20.172 12.2882C20.8577 10.9142 21 10.2667 21 8.51946C21 7.23072 20.9706 6.91941 20.79 6.29452C19.8108 2.9077 16.9081 0.467707 13.398 0.0806571C12.4134 -0.0278657 12.3565 -0.0277749 11.4573 0.0863784ZM11.5484 3.80412L11.3106 4.08347V6.23086V8.37815L13.127 10.1743C14.7471 11.7762 14.9759 11.9704 15.2438 11.9704C15.629 11.9704 15.9946 11.6021 15.9946 11.2138C15.9946 10.9781 15.7668 10.7113 14.4332 9.38483L12.8719 7.83182V5.99011C12.8719 4.76412 12.8362 4.0821 12.7651 3.95006C12.4894 3.43823 11.918 3.36967 11.5484 3.80412ZM0.418024 4.46988C-0.0534967 4.67585 -0.144513 5.28339 0.23939 5.6629L0.464772 5.88585H3.59762C5.80332 5.88585 6.7899 5.85461 6.93115 5.78024C7.40708 5.5295 7.49488 5.05064 7.13982 4.64225L6.9182 4.38742L3.81051 4.36644C1.34306 4.34982 0.644049 4.37117 0.418024 4.46988ZM1.32075 7.8537C1.12907 7.92999 0.913057 8.4311 0.971928 8.66295C1.00187 8.7811 1.1164 8.96054 1.22633 9.0618C1.4192 9.23952 1.5386 9.24597 4.62938 9.24597C6.50445 9.24597 7.9011 9.20974 7.99772 9.15861C8.27738 9.01058 8.41358 8.5665 8.2783 8.24357C8.21474 8.09182 8.08846 7.92835 7.99772 7.88031C7.829 7.79104 1.54117 7.76607 1.32075 7.8537ZM2.35591 11.2628C1.89431 11.5245 1.81477 11.9949 2.16414 12.3967L2.38576 12.6515L5.35568 12.6789C6.98919 12.6941 8.46235 12.6816 8.62932 12.6512C9.28389 12.5321 9.5236 11.8298 9.06457 11.376L8.83918 11.1531L5.68934 11.1558C3.49311 11.1578 2.48403 11.1901 2.35591 11.2628Z" fill="#B7C52F"/>
</svg>
