<svg width="17" height="18" viewBox="0 0 17 18" fill="none" xmlns="http://www.w3.org/2000/svg">
<path id="&#208;&#161;&#208;&#189;&#208;&#184;&#208;&#188;&#208;&#190;&#208;&#186; &#209;&#141;&#208;&#186;&#209;&#128;&#208;&#176;&#208;&#189;&#208;&#176; 2023-09-13 &#208;&#178; 17.12 2 (Traced)" fill-rule="evenodd" clip-rule="evenodd" d="M3.08196 0.085151C2.82525 0.233327 2.74799 0.403746 2.74799 0.82196V1.22764L2.17283 1.26406C1.46379 1.30894 0.968184 1.55329 0.536552 2.07073C-0.0245091 2.74332 -0.00142871 2.43529 0.000649293 9.21545C0.0022078 14.1914 0.0209098 15.3222 0.106331 15.5837C0.326228 16.2573 0.829031 16.7941 1.46394 17.0331C1.68257 17.1154 2.40193 17.1401 4.65902 17.1427C7.46277 17.146 7.57743 17.1404 7.71851 16.9915C7.93225 16.7659 7.97314 16.4951 7.83584 16.2148C7.77024 16.0809 7.70908 15.964 7.69988 15.955C7.69075 15.9459 6.37486 15.9195 4.77561 15.8962C1.98492 15.8557 1.85957 15.8474 1.6586 15.6917C1.18229 15.3227 1.18971 15.3964 1.18964 11.057L1.18949 7.12156H8.49962H15.8097V8.18237C15.8097 9.20433 15.8164 9.2503 15.9919 9.43544C16.2338 9.69076 16.6147 9.69483 16.8375 9.44445C16.9998 9.26221 17.0007 9.24537 16.9999 6.21778C16.9991 2.78185 16.9887 2.70134 16.4642 2.07261C16.0311 1.55329 15.5362 1.30894 14.8264 1.26406L14.2512 1.22764L14.2489 0.82658C14.2464 0.402571 14.168 0.234424 13.9036 0.0857775C13.6528 -0.0551152 13.445 -0.0231615 13.246 0.186964C13.0964 0.344773 13.0638 0.456766 13.0638 0.813501V1.24777H11.0971H9.13044V0.850154C9.13044 0.515113 9.0963 0.416511 8.91351 0.223616C8.63201 -0.0734413 8.36722 -0.0734413 8.08572 0.223616C7.90293 0.416511 7.86879 0.515113 7.86879 0.850154V1.24777H5.90211H3.93543V0.813501C3.93543 0.456766 3.90285 0.344773 3.75323 0.186964C3.55886 -0.0182275 3.32293 -0.0539404 3.08196 0.085151ZM2.74799 2.95328C2.74799 3.57332 3.0991 3.9133 3.56317 3.74264C3.85379 3.63574 3.93543 3.46759 3.93543 2.97592V2.57916H5.89291H7.85039L7.8846 3.01453C7.92683 3.55116 8.11355 3.78525 8.49962 3.78525C8.88568 3.78525 9.0724 3.55116 9.11463 3.01453L9.14884 2.57916H11.1063H13.0638V2.97592C13.0638 3.46759 13.1454 3.63574 13.4361 3.74264C13.9001 3.9133 14.2512 3.57332 14.2512 2.95328V2.57916L14.678 2.57948C14.975 2.57963 15.1794 2.6278 15.3504 2.73783C15.7423 2.98994 15.8097 3.27102 15.8097 4.65206V5.86849H8.49962H1.18949V4.65206C1.18949 3.27102 1.25695 2.98994 1.64888 2.73783C1.81987 2.6278 2.02426 2.57963 2.32126 2.57948L2.74799 2.57916V2.95328ZM11.5945 8.92458C10.7766 9.15068 10.2063 9.50327 9.57573 10.1726C8.69814 11.104 8.31408 12.0826 8.31408 13.3869C8.31408 14.6913 8.69814 15.6699 9.57573 16.6013C10.2153 17.2802 10.7799 17.6252 11.6237 17.853C12.3502 18.049 12.9611 18.049 13.6875 17.853C14.5314 17.6252 15.0959 17.2802 15.7355 16.6013C16.6131 15.6699 16.9972 14.6913 16.9972 13.3869C16.9972 12.0826 16.6131 11.104 15.7355 10.1726C15.0959 9.49371 14.5314 9.14873 13.6875 8.9209C12.9757 8.72879 12.2983 8.73004 11.5945 8.92458ZM14.0497 10.4341C16.3768 11.6478 16.3741 15.1275 14.0451 16.3422C13.4944 16.6294 13.4583 16.6371 12.6595 16.6371C11.8902 16.6371 11.808 16.6215 11.3365 16.3858C8.75143 15.0936 8.97177 11.258 11.6899 10.2341C11.9725 10.1277 12.2334 10.0997 12.7753 10.1177C13.4264 10.1394 13.5376 10.167 14.0497 10.4341ZM12.2493 11.0355C12.0383 11.2581 12.0091 11.4603 12.037 12.5032L12.0619 13.4349L12.644 14.1746C12.9641 14.5813 13.3219 14.9577 13.4392 15.0112C13.6974 15.1286 13.9611 15.0423 14.1324 14.7842C14.3459 14.4625 14.2793 14.2419 13.7692 13.5809L13.2871 12.9562L13.2868 12.1887C13.2865 11.3918 13.1884 11.0263 12.9491 10.9294C12.7145 10.8344 12.3938 10.883 12.2493 11.0355Z" fill="#B7C52F"/>
</svg>
