<svg width="16" height="16" viewBox="0 0 16 16" fill="none" xmlns="http://www.w3.org/2000/svg">
<g id="Group 93">
<path id="Vector" d="M7.58257 0.0100367C3.33674 0.209935 -0.012757 3.72015 3.65263e-05 7.9396C0.00213993 9.1816 0.299502 10.4053 0.867594 11.5098L0.0216255 15.5885C0.0113035 15.6395 0.0140062 15.6923 0.0294837 15.7419C0.0449611 15.7916 0.0727136 15.8366 0.110175 15.8727C0.147636 15.9088 0.193597 15.9349 0.243806 15.9485C0.294016 15.9621 0.346854 15.9629 0.397434 15.9507L4.42258 15.004C5.48866 15.5308 6.659 15.8128 7.84804 15.8292C12.1874 15.8955 15.8048 12.4749 15.9399 8.16908C16.0854 3.55143 12.2482 -0.21145 7.58257 0.00923708V0.0100367ZM12.3857 12.2974C11.8056 12.8754 11.1171 13.3333 10.3597 13.6448C9.60233 13.9562 8.79091 14.1152 7.97197 14.1125C7.00848 14.1154 6.05749 13.8942 5.19419 13.4664L4.63368 13.1889L2.16533 13.7694L2.68507 11.2659L2.40841 10.7286C1.95992 9.85921 1.72734 8.89464 1.73035 7.91641C1.73035 6.26125 2.37962 4.70444 3.55822 3.53464C4.73298 2.37179 6.31902 1.71928 7.97197 1.71877C9.63992 1.71877 11.2071 2.36324 12.3857 3.53384C12.9664 4.10606 13.4272 4.78828 13.7412 5.54063C14.0552 6.29298 14.216 7.10037 14.2144 7.91561C14.2144 9.55637 13.5547 11.138 12.3857 12.2982V12.2974Z" fill="#2DC02A"/>
<path id="Vector_2" d="M11.8416 9.63171L10.2976 9.19194C10.1979 9.16334 10.0924 9.16206 9.99213 9.18822C9.89183 9.21439 9.80041 9.26704 9.72744 9.34066L9.35004 9.72287C9.27195 9.80196 9.17227 9.85629 9.06348 9.87904C8.95468 9.9018 8.84159 9.89197 8.73835 9.8508C8.00832 9.55735 6.4715 8.20124 6.0789 7.52239C6.02387 7.42651 5.99873 7.31637 6.00671 7.2061C6.01468 7.09584 6.05542 6.99047 6.12368 6.9035L6.45311 6.47972C6.51653 6.39852 6.55666 6.3016 6.5692 6.19934C6.58173 6.09707 6.56621 5.99333 6.52428 5.89922L5.87501 4.44076C5.83829 4.35924 5.78316 4.28735 5.71396 4.23074C5.64475 4.17413 5.56336 4.13435 5.47619 4.11451C5.38901 4.09467 5.29842 4.09532 5.21153 4.11641C5.12465 4.13751 5.04384 4.17846 4.97547 4.23606C4.54449 4.59828 4.03275 5.1476 3.97118 5.75769C3.86163 6.83154 4.3254 8.18525 6.0797 9.81162C8.10667 11.6899 9.73064 11.9385 10.7869 11.6835C11.3866 11.5395 11.8664 10.9614 12.1678 10.4889C12.216 10.4138 12.2459 10.3285 12.2552 10.2398C12.2644 10.151 12.2527 10.0614 12.2209 9.97799C12.1892 9.89462 12.1383 9.81985 12.0725 9.75971C12.0066 9.69957 11.9275 9.65573 11.8416 9.63171Z" fill="#2DC02A"/>
</g>
</svg>
