<svg width="15" height="15" viewBox="0 0 15 15" fill="none" xmlns="http://www.w3.org/2000/svg">
<circle cx="7.5" cy="7.5" r="7" fill="white" stroke="#CACACA"/>
<path d="M6.97047 8.89993C6.95047 8.59327 6.97047 8.33327 7.03047 8.11993C7.09714 7.9066 7.18047 7.71993 7.28047 7.55993C7.38714 7.39993 7.5038 7.25993 7.63047 7.13993C7.75714 7.01326 7.87714 6.88993 7.99047 6.76993C8.1038 6.64326 8.19714 6.5066 8.27047 6.35993C8.3438 6.21326 8.38047 6.03993 8.38047 5.83993C8.38047 5.55993 8.30047 5.3366 8.14047 5.16993C7.98714 4.9966 7.77047 4.90993 7.49047 4.90993C7.17047 4.90993 6.9238 5.01993 6.75047 5.23993C6.57714 5.45326 6.4838 5.73993 6.47047 6.09993H5.48047V5.81993C5.52714 5.21326 5.73714 4.7466 6.11047 4.41993C6.49047 4.09326 6.9738 3.92993 7.56047 3.92993C7.84047 3.92993 8.10047 3.97327 8.34047 4.05993C8.58047 4.13993 8.78714 4.2566 8.96047 4.40993C9.14047 4.56326 9.28047 4.74993 9.38047 4.96993C9.48047 5.18326 9.53047 5.4266 9.53047 5.69993C9.53047 5.9866 9.48714 6.23326 9.40047 6.43993C9.32047 6.6466 9.21714 6.82993 9.09047 6.98993C8.97047 7.14326 8.83714 7.2866 8.69047 7.41993C8.55047 7.55326 8.41714 7.68993 8.29047 7.82993C8.17047 7.96993 8.06714 8.1266 7.98047 8.29993C7.90047 8.4666 7.86047 8.6666 7.86047 8.89993H6.97047ZM7.42047 11.0999C7.20714 11.0999 7.0438 11.0366 6.93047 10.9099C6.81714 10.7833 6.76047 10.6299 6.76047 10.4499C6.76047 10.2633 6.8138 10.1066 6.92047 9.97993C7.0338 9.85327 7.20047 9.78993 7.42047 9.78993C7.64047 9.78993 7.80714 9.85327 7.92047 9.97993C8.04047 10.1066 8.10047 10.2633 8.10047 10.4499C8.10047 10.6299 8.04047 10.7833 7.92047 10.9099C7.80047 11.0366 7.6338 11.0999 7.42047 11.0999Z" fill="#CACACA"/>
</svg>
