<svg width="93" height="31" viewBox="0 0 93 31" fill="none" xmlns="http://www.w3.org/2000/svg">
<rect width="93" height="31" rx="8" fill="#FFDD2D"/>
<path d="M15.97 13.42V12.38H10.1V13.42H12.44V19.5H13.63V13.42H15.97ZM17.9442 13.47V12.38H16.8042V13.47H17.9442ZM17.9442 19.5V14.42H16.8042V19.5H17.9442ZM22.0219 14.3C21.3519 14.3 20.8219 14.62 20.5019 15.08H20.4819V14.42H19.4019V19.5H20.5419V16.68C20.5419 15.71 21.0519 15.22 21.7019 15.22C22.3419 15.22 22.7319 15.58 22.7319 16.49V19.5H23.8719V16.39C23.8719 15 23.1719 14.3 22.0219 14.3ZM29.8608 19.5L27.5208 16.74L29.6208 14.42H28.2908L26.4408 16.5H26.4208V12.38H25.2808V19.5H26.4208V17.04H26.4408L28.4208 19.5H29.8608ZM32.4115 14.27C30.8715 14.27 29.9015 15.31 29.9015 16.96C29.9015 18.61 30.8715 19.65 32.4115 19.65C33.9515 19.65 34.9115 18.61 34.9115 16.96C34.9115 15.31 33.9515 14.27 32.4115 14.27ZM32.4115 15.17C33.2215 15.17 33.7215 15.86 33.7215 16.96C33.7215 18.06 33.2215 18.75 32.4115 18.75C31.6015 18.75 31.1015 18.06 31.1015 16.96C31.1015 15.86 31.6015 15.17 32.4115 15.17ZM41.053 13.18C41.153 13.18 41.263 13.2 41.323 13.22V12.38C41.183 12.35 40.933 12.31 40.733 12.31C39.733 12.31 39.193 12.83 39.193 13.88V14.42H37.403V14.01C37.403 13.41 37.643 13.18 38.133 13.18C38.233 13.18 38.343 13.2 38.413 13.22V12.38C38.263 12.35 38.023 12.31 37.813 12.31C36.813 12.31 36.273 12.83 36.273 13.88V14.42H35.413V15.29H36.273V19.5H37.403V15.29H39.193V19.5H40.323V15.29H41.303V14.42H40.323V14.01C40.323 13.41 40.563 13.18 41.053 13.18Z" fill="black" fill-opacity="0.8"/>
<rect x="47" y="8" width="36" height="15" rx="7.5" fill="#333333"/>
<g clip-path="url(#clip0_565_968)">
<path d="M55.3985 10.8333C54.7941 10.8333 54.0432 11.2069 53.7634 11.4697L53.8734 11.7196C53.8734 11.7196 53.0212 11.731 52.582 12.0137C52.1428 12.2964 51.9425 12.4887 51.7262 12.9453C51.5096 12.9556 50.6975 13.3004 50.2271 13.6469C50.2271 13.6469 49.8318 15.1435 50.5805 15.7893L50.1079 16.4382C50.2271 16.8467 50.7419 17.2618 51.2535 17.3114C51.4837 17.5903 51.0372 18.1445 51.0372 18.1445C51.2262 18.7444 52.4986 19.4038 53.2585 19.4038L53.1539 19.757C53.1539 19.757 54.0004 20.3734 55.3663 20.3158C56.521 20.3533 57.4601 20.0775 57.6985 19.757L57.5778 19.4038C58.6325 19.2466 59.429 18.9028 59.8723 18.1729C59.8723 18.1729 59.5422 17.479 59.6574 17.305C60.169 17.2554 60.6474 16.7516 60.7746 16.5315L60.3105 15.8011C60.6806 15.3854 60.8878 14.2887 60.6157 13.6469C60.1454 13.3004 59.3412 13.0186 59.1246 13.0082C59.0387 12.5012 58.487 12.1048 58.487 12.1048C57.9645 11.6505 57.0143 11.7196 57.0143 11.7196L57.0915 11.4697C56.8492 11.1996 56.0843 10.8333 55.3985 10.8333Z" fill="white"/>
<path d="M53.9893 12.2525C53.3846 12.0985 52.9287 12.3093 52.5343 12.5993C52.139 12.89 51.983 13.2667 52.0177 13.4016C51.6945 13.2692 50.9848 13.6796 50.647 13.8765C50.647 13.8765 50.3856 15.1552 51.0539 15.6499C51.0192 15.9973 50.7741 16.4142 50.647 16.4923C50.8673 16.8397 51.3341 16.9348 51.5318 16.8465C51.8622 17.304 51.7026 17.9239 51.519 18.1216C52.0325 18.5853 53.2579 18.7798 53.6168 18.8088C53.6168 18.8088 53.3008 18.0684 53.1598 17.4582C52.7699 15.772 52.9798 13.6679 52.9798 13.6679C52.9798 13.6679 52.0691 14.728 52.5767 17.2836C52.6624 17.7152 52.7836 18.1713 52.7836 18.1713C52.6991 18.1294 52.493 18.1548 52.114 17.9631C52.2764 17.7882 52.2065 16.7512 51.7282 16.2424C51.7282 16.2424 51.5007 16.3474 51.3336 16.2779C51.446 16.2088 51.5863 15.7682 51.5863 15.431C51.0455 15.1077 51.1029 14.5233 51.1296 14.216C51.395 14.0437 51.871 13.7508 52.4699 14.0065C52.4541 13.8614 52.4951 13.4754 52.6594 13.205C52.6594 13.205 52.8594 12.857 53.3112 12.7478C53.763 12.6386 53.9893 12.2525 53.9893 12.2525Z" fill="#333333"/>
<path d="M56.8935 12.2525C57.4982 12.0985 57.9541 12.3093 58.3486 12.5993C58.7438 12.89 58.8998 13.2667 58.8651 13.4016C59.1883 13.2692 59.898 13.6796 60.2358 13.8765C60.2358 13.8765 60.4972 15.1552 59.8289 15.6499C59.8637 15.9973 60.1087 16.4142 60.2358 16.4923C60.0155 16.8397 59.5487 16.9348 59.351 16.8465C59.0206 17.304 59.1803 17.9239 59.3638 18.1216C58.8503 18.5853 57.6249 18.7798 57.266 18.8088C57.266 18.8088 57.582 18.0684 57.723 17.4582C58.1129 15.772 57.9031 13.6679 57.9031 13.6679C57.9031 13.6679 58.8137 14.728 58.3061 17.2836C58.2204 17.7152 58.0992 18.1713 58.0992 18.1713C58.1837 18.1294 58.3898 18.1548 58.7688 17.9631C58.6065 17.7882 58.6763 16.7512 59.1546 16.2424C59.1546 16.2424 59.3822 16.3474 59.5492 16.2779C59.4368 16.2088 59.2965 15.7682 59.2965 15.431C59.8373 15.1077 59.7799 14.5233 59.7532 14.216C59.4878 14.0437 59.0118 13.7508 58.413 14.0065C58.4287 13.8614 58.3877 13.4754 58.2234 13.205C58.2234 13.205 58.0234 12.857 57.5716 12.7478C57.1198 12.6386 56.8935 12.2525 56.8935 12.2525Z" fill="#333333"/>
<path fill-rule="evenodd" clip-rule="evenodd" d="M55.4908 13.2377C55.0554 13.2361 54.4804 13.352 54.4804 13.352L54.3076 11.6322L55.47 11.2809L56.5753 11.6322L56.4806 13.352C56.4806 13.352 55.9191 13.2392 55.4908 13.2377ZM55.4908 12.7474C55.2494 12.7411 54.9386 12.7846 54.9386 12.7846L54.8676 11.9698L55.47 11.8064L56.068 11.9698V12.7846C56.068 12.7846 55.7373 12.7539 55.4908 12.7474Z" fill="#333333"/>
<path fill-rule="evenodd" clip-rule="evenodd" d="M55.4356 19.773C56.4418 19.7613 57.0859 19.4615 57.0859 19.4615L56.6926 18.2257C56.6926 18.2257 55.8483 18.4704 55.4416 18.4708C55.035 18.4704 54.2041 18.2257 54.2041 18.2257L53.7974 19.4615C53.7974 19.4615 54.4294 19.7613 55.4356 19.773ZM55.4416 19.3606C56.0145 19.3583 56.3685 19.2408 56.5606 19.1629L56.4554 18.7393C56.2183 18.8172 55.8069 18.9032 55.4416 18.9062C55.0764 18.9032 54.6625 18.839 54.4253 18.7612L54.3337 19.1629C54.5258 19.2408 54.8687 19.3583 55.4416 19.3606Z" fill="#333333"/>
<path fill-rule="evenodd" clip-rule="evenodd" d="M57.4783 13.8937H53.4048C53.4364 13.9377 53.5648 14.1514 53.6107 14.2748C53.6567 14.3985 53.6906 14.5233 53.6922 14.6002C53.6934 14.6611 53.7008 14.8502 53.7105 15.0973L53.7106 15.0997C53.7299 15.5898 53.7581 16.3103 53.7661 16.7359C53.7696 16.9236 53.8113 17.1725 53.9619 17.376C54.1152 17.5832 54.3742 17.7337 54.7906 17.7337H55.0835C55.1124 17.7337 55.1323 17.7411 55.148 17.752C55.1649 17.7635 55.1804 17.7813 55.196 17.8068C55.2118 17.8326 55.2282 17.8685 55.2434 17.9027C55.2573 17.9339 55.2728 17.9687 55.2912 18.0003C55.2974 18.0087 55.3226 18.0423 55.3461 18.0573C55.3713 18.0734 55.4027 18.0828 55.4416 18.0828C55.4812 18.0828 55.513 18.073 55.5383 18.0574C55.5621 18.0428 55.5859 18.0085 55.5926 18.0003C55.6116 17.9676 55.6306 17.9317 55.6445 17.8998C55.6594 17.8655 55.6743 17.8319 55.6896 17.8061C55.7047 17.7807 55.7198 17.7631 55.7361 17.7517C55.7513 17.7411 55.7708 17.7337 55.7997 17.7337H56.0925C56.5089 17.7337 56.7679 17.5832 56.9212 17.376C57.0718 17.1725 57.1136 16.9236 57.1171 16.7359C57.125 16.3103 57.1533 15.5899 57.1725 15.0998L57.1726 15.0975C57.1823 14.8503 57.1897 14.6611 57.1909 14.6002C57.1925 14.5233 57.2264 14.3985 57.2725 14.2748C57.3184 14.1514 57.4468 13.9377 57.4783 13.8937ZM54.1801 14.4705C54.1752 14.4443 54.17 14.4188 54.1645 14.3957H56.7301C56.7229 14.4212 56.7178 14.4468 56.7141 14.4709C56.705 14.5305 56.7033 14.6263 56.7033 14.6263C56.6834 15.1276 56.6433 16.1716 56.6433 16.6909C56.6433 16.9052 56.5742 17.0437 56.4828 17.1281C56.3904 17.2135 56.2683 17.2497 56.1523 17.2461C56.1369 17.2456 56.1059 17.2451 56.0729 17.2445C56.0287 17.2438 55.9808 17.243 55.9616 17.2421C55.8449 17.2368 55.7315 17.242 55.6329 17.2691C55.5613 17.2888 55.4956 17.3206 55.4425 17.3694C55.3181 17.2466 55.1175 17.1925 54.9122 17.2019C54.893 17.2027 54.8402 17.2035 54.7913 17.2042C54.7535 17.2048 54.718 17.2053 54.702 17.2058C54.4838 17.2127 54.263 17.0321 54.263 16.6909C54.263 16.1237 54.2262 15.1714 54.2073 14.6828C54.2073 14.6828 54.1936 14.5435 54.1801 14.4705Z" fill="#333333"/>
<path d="M54.1587 14.3957C54.1641 14.4188 54.1694 14.4443 54.1743 14.4705C54.1878 14.5435 54.2014 14.6828 54.2014 14.6828C54.2203 15.1714 54.2572 16.1237 54.2572 16.6909C54.2572 17.0321 54.478 17.2127 54.6962 17.2058C54.7122 17.2053 54.7477 17.2048 54.7855 17.2042C54.8344 17.2035 54.8872 17.2027 54.9063 17.2019C55.1117 17.1925 55.3123 17.2466 55.4367 17.3694C55.4898 17.3205 55.5555 17.2888 55.627 17.2691C55.7257 17.242 55.8391 17.2368 55.9558 17.2421C55.975 17.243 56.0229 17.2438 56.0671 17.2445C56.1001 17.2451 56.131 17.2456 56.1465 17.2461C56.2625 17.2497 56.3845 17.2135 56.477 17.1281C56.5683 17.0437 56.6375 16.9051 56.6375 16.6909C56.6375 16.1716 56.6776 15.1276 56.6975 14.6263C56.6975 14.6263 56.6991 14.5305 56.7083 14.4709C56.712 14.4468 56.7171 14.4212 56.7242 14.3957H54.1587Z" fill="#FFDD2D"/>
</g>
<path d="M65.7544 13.12H62.7744V17.88H64.2244V16.6H65.7544C66.1144 16.6 66.4644 16.59 66.8044 16.48C67.4644 16.27 67.9544 15.68 67.9544 14.88C67.9544 14.08 67.4744 13.5 66.8244 13.27C66.4644 13.14 66.1244 13.12 65.7544 13.12ZM64.2244 15.48V14.27H65.5444C65.8244 14.27 65.9844 14.3 66.1144 14.35C66.3444 14.44 66.4544 14.65 66.4544 14.87C66.4544 15.11 66.3244 15.34 66.0744 15.42C65.9544 15.46 65.8144 15.48 65.5444 15.48H64.2244Z" fill="white"/>
<path d="M70.0329 16.14L70.7229 14.22H70.8329L71.5229 16.14H70.0329ZM69.6729 17.19H71.8729L72.1529 17.88H73.7829L71.8329 13.12H69.7129L67.7629 17.88H69.4029L69.6729 17.19Z" fill="white"/>
<path d="M77.3124 13.12L76.1324 15.29H76.0824L74.8924 13.12H73.2024L75.3524 16.62V17.88H76.8524V16.5L78.8924 13.12H77.3124Z" fill="white"/>
<defs>
<clipPath id="clip0_565_968">
<rect width="10.6667" height="10.6667" fill="white" transform="translate(50.1079 10.1667)"/>
</clipPath>
</defs>
</svg>
