<svg width="187" height="50" viewBox="0 0 187 50" fill="none" xmlns="http://www.w3.org/2000/svg">
<rect width="187" height="50" rx="5" fill="white"/>
<path d="M50.352 21.112C49.7653 21.112 49.2373 21.0213 48.768 20.84C48.2987 20.6587 47.8933 20.408 47.552 20.088C47.2213 19.7573 46.9653 19.3627 46.784 18.904C46.6027 18.4453 46.512 17.9333 46.512 17.368C46.512 16.7707 46.608 16.2373 46.8 15.768C47.0027 15.288 47.2747 14.888 47.616 14.568C47.9573 14.2373 48.3627 13.9867 48.832 13.816C49.3013 13.6453 49.808 13.56 50.352 13.56C50.9707 13.56 51.5307 13.6667 52.032 13.88C52.544 14.0933 52.944 14.36 53.232 14.68L52.208 16.024C51.9947 15.7893 51.744 15.6027 51.456 15.464C51.1787 15.3253 50.864 15.256 50.512 15.256C49.9147 15.256 49.44 15.448 49.088 15.832C48.7467 16.216 48.576 16.7067 48.576 17.304C48.576 17.9227 48.752 18.4347 49.104 18.84C49.4667 19.2347 49.952 19.432 50.56 19.432C50.912 19.432 51.2267 19.3627 51.504 19.224C51.7813 19.0747 52.0267 18.8827 52.24 18.648L53.408 19.8C53.088 20.216 52.6613 20.5413 52.128 20.776C51.6053 21 51.0133 21.112 50.352 21.112ZM62.2765 21.112C61.7005 21.112 61.1672 21.0213 60.6765 20.84C60.1965 20.6587 59.7805 20.4027 59.4285 20.072C59.0872 19.7307 58.8152 19.3307 58.6125 18.872C58.4205 18.4133 58.3245 17.9013 58.3245 17.336C58.3245 16.7707 58.4205 16.2587 58.6125 15.8C58.8152 15.3307 59.0925 14.9307 59.4445 14.6C59.7965 14.2693 60.2125 14.0133 60.6925 13.832C61.1832 13.6507 61.7112 13.56 62.2765 13.56C62.8525 13.56 63.3805 13.6507 63.8605 13.832C64.3512 14.0133 64.7725 14.2747 65.1245 14.616C65.4765 14.9467 65.7485 15.3467 65.9405 15.816C66.1325 16.2747 66.2285 16.7813 66.2285 17.336C66.2285 17.912 66.1272 18.4347 65.9245 18.904C65.7218 19.3627 65.4445 19.7573 65.0925 20.088C64.7405 20.408 64.3245 20.6587 63.8445 20.84C63.3645 21.0213 62.8418 21.112 62.2765 21.112ZM62.2765 19.432C62.8632 19.432 63.3218 19.2347 63.6525 18.84C63.9832 18.4453 64.1485 17.944 64.1485 17.336C64.1485 16.728 63.9885 16.232 63.6685 15.848C63.3485 15.4533 62.8845 15.256 62.2765 15.256C61.6792 15.256 61.2152 15.4533 60.8845 15.848C60.5538 16.2427 60.3885 16.7387 60.3885 17.336C60.3885 17.624 60.4312 17.896 60.5165 18.152C60.6018 18.408 60.7245 18.632 60.8845 18.824C61.0445 19.016 61.2418 19.1653 61.4765 19.272C61.7112 19.3787 61.9778 19.432 62.2765 19.432ZM67.6628 13.688H74.5428V21H72.5748V15.432H69.6468V21H67.6628V13.688ZM76.204 21.16C76.0867 21.16 75.98 21.1547 75.884 21.144C75.7987 21.1333 75.724 21.1227 75.66 21.112V19.208C75.7667 19.2293 75.852 19.24 75.916 19.24C76.0973 19.24 76.252 19.176 76.38 19.048C76.508 18.9093 76.6093 18.6907 76.684 18.392C76.7693 18.0827 76.828 17.6827 76.86 17.192C76.9027 16.7013 76.924 16.104 76.924 15.4V13.688H82.476V21H80.508V15.432H78.748V16.296C78.748 17.2133 78.6893 17.9813 78.572 18.6C78.4653 19.2187 78.3 19.72 78.076 20.104C77.8627 20.4773 77.596 20.7493 77.276 20.92C76.9667 21.08 76.6093 21.16 76.204 21.16ZM87.3575 21.112C86.9202 21.112 86.4935 21.0213 86.0775 20.84C85.6722 20.6587 85.3095 20.4027 84.9895 20.072C84.6802 19.7413 84.4295 19.3467 84.2375 18.888C84.0455 18.4187 83.9495 17.9013 83.9495 17.336C83.9495 16.7707 84.0402 16.2587 84.2215 15.8C84.4135 15.3307 84.6642 14.9307 84.9735 14.6C85.2935 14.2693 85.6562 14.0133 86.0615 13.832C86.4775 13.6507 86.9095 13.56 87.3575 13.56C87.9015 13.56 88.3815 13.6667 88.7975 13.88C89.2242 14.0933 89.5602 14.3547 89.8055 14.664V13.688H91.6775V21H89.8055V20.008C89.5388 20.3387 89.1922 20.6053 88.7655 20.808C88.3388 21.0107 87.8695 21.112 87.3575 21.112ZM87.8855 19.416C88.4295 19.416 88.8615 19.2293 89.1815 18.856C89.5122 18.472 89.6828 17.976 89.6935 17.368V17.24C89.6935 16.6747 89.5282 16.2107 89.1975 15.848C88.8668 15.4853 88.4295 15.304 87.8855 15.304C87.6402 15.304 87.4055 15.3467 87.1815 15.432C86.9575 15.5173 86.7602 15.6453 86.5895 15.816C86.4188 15.9867 86.2855 16.2 86.1895 16.456C86.0935 16.712 86.0455 17.0053 86.0455 17.336C86.0455 17.976 86.2162 18.4827 86.5575 18.856C86.9095 19.2293 87.3522 19.416 87.8855 19.416ZM95.249 15.432H92.897V13.688H99.569V15.432H97.217V21H95.249V15.432ZM104.027 21.112C103.451 21.112 102.917 21.0213 102.427 20.84C101.947 20.6587 101.531 20.4027 101.179 20.072C100.837 19.7307 100.565 19.3307 100.363 18.872C100.171 18.4133 100.075 17.9013 100.075 17.336C100.075 16.7707 100.171 16.2587 100.363 15.8C100.565 15.3307 100.843 14.9307 101.195 14.6C101.547 14.2693 101.963 14.0133 102.443 13.832C102.933 13.6507 103.461 13.56 104.027 13.56C104.603 13.56 105.131 13.6507 105.611 13.832C106.101 14.0133 106.523 14.2747 106.875 14.616C107.227 14.9467 107.499 15.3467 107.691 15.816C107.883 16.2747 107.979 16.7813 107.979 17.336C107.979 17.912 107.877 18.4347 107.675 18.904C107.472 19.3627 107.195 19.7573 106.843 20.088C106.491 20.408 106.075 20.6587 105.595 20.84C105.115 21.0213 104.592 21.112 104.027 21.112ZM104.027 19.432C104.613 19.432 105.072 19.2347 105.403 18.84C105.733 18.4453 105.899 17.944 105.899 17.336C105.899 16.728 105.739 16.232 105.419 15.848C105.099 15.4533 104.635 15.256 104.027 15.256C103.429 15.256 102.965 15.4533 102.635 15.848C102.304 16.2427 102.139 16.7387 102.139 17.336C102.139 17.624 102.181 17.896 102.267 18.152C102.352 18.408 102.475 18.632 102.635 18.824C102.795 19.016 102.992 19.1653 103.227 19.272C103.461 19.3787 103.728 19.432 104.027 19.432ZM109.413 13.688H111.397V17.896L114.789 13.688H116.341V21H114.357V16.552L110.773 21H109.413V13.688ZM112.869 12.744C112.538 12.744 112.223 12.7013 111.925 12.616C111.637 12.52 111.381 12.3813 111.157 12.2C110.943 12.0187 110.773 11.7893 110.645 11.512C110.517 11.224 110.447 10.8933 110.437 10.52H111.861C111.882 10.808 111.973 11.0427 112.133 11.224C112.293 11.4053 112.549 11.496 112.901 11.496C113.242 11.496 113.493 11.4107 113.653 11.24C113.823 11.0587 113.919 10.8187 113.941 10.52H115.349C115.338 10.8933 115.263 11.224 115.125 11.512C114.986 11.7893 114.805 12.0187 114.581 12.2C114.357 12.3813 114.095 12.52 113.797 12.616C113.498 12.7013 113.189 12.744 112.869 12.744ZM122.382 13.688H129.262V21H127.294V15.432H124.366V21H122.382V13.688ZM134.683 21.112C134.107 21.112 133.573 21.0213 133.083 20.84C132.603 20.6587 132.187 20.4027 131.835 20.072C131.493 19.7307 131.221 19.3307 131.019 18.872C130.827 18.4133 130.731 17.9013 130.731 17.336C130.731 16.7707 130.827 16.2587 131.019 15.8C131.221 15.3307 131.499 14.9307 131.851 14.6C132.203 14.2693 132.619 14.0133 133.099 13.832C133.589 13.6507 134.117 13.56 134.683 13.56C135.259 13.56 135.787 13.6507 136.267 13.832C136.757 14.0133 137.179 14.2747 137.531 14.616C137.883 14.9467 138.155 15.3467 138.347 15.816C138.539 16.2747 138.635 16.7813 138.635 17.336C138.635 17.912 138.533 18.4347 138.331 18.904C138.128 19.3627 137.851 19.7573 137.499 20.088C137.147 20.408 136.731 20.6587 136.251 20.84C135.771 21.0213 135.248 21.112 134.683 21.112ZM134.683 19.432C135.269 19.432 135.728 19.2347 136.059 18.84C136.389 18.4453 136.555 17.944 136.555 17.336C136.555 16.728 136.395 16.232 136.075 15.848C135.755 15.4533 135.291 15.256 134.683 15.256C134.085 15.256 133.621 15.4533 133.291 15.848C132.96 16.2427 132.795 16.7387 132.795 17.336C132.795 17.624 132.837 17.896 132.923 18.152C133.008 18.408 133.131 18.632 133.291 18.824C133.451 19.016 133.648 19.1653 133.883 19.272C134.117 19.3787 134.384 19.432 134.683 19.432ZM143.477 21.112C142.89 21.112 142.362 21.0213 141.893 20.84C141.424 20.6587 141.018 20.408 140.677 20.088C140.346 19.7573 140.09 19.3627 139.909 18.904C139.728 18.4453 139.637 17.9333 139.637 17.368C139.637 16.7707 139.733 16.2373 139.925 15.768C140.128 15.288 140.4 14.888 140.741 14.568C141.082 14.2373 141.488 13.9867 141.957 13.816C142.426 13.6453 142.933 13.56 143.477 13.56C144.096 13.56 144.656 13.6667 145.157 13.88C145.669 14.0933 146.069 14.36 146.357 14.68L145.333 16.024C145.12 15.7893 144.869 15.6027 144.581 15.464C144.304 15.3253 143.989 15.256 143.637 15.256C143.04 15.256 142.565 15.448 142.213 15.832C141.872 16.216 141.701 16.7067 141.701 17.304C141.701 17.9227 141.877 18.4347 142.229 18.84C142.592 19.2347 143.077 19.432 143.685 19.432C144.037 19.432 144.352 19.3627 144.629 19.224C144.906 19.0747 145.152 18.8827 145.365 18.648L146.533 19.8C146.213 20.216 145.786 20.5413 145.253 20.776C144.73 21 144.138 21.112 143.477 21.112ZM147.485 21.16C147.368 21.16 147.261 21.1547 147.165 21.144C147.08 21.1333 147.005 21.1227 146.941 21.112V19.208C147.048 19.2293 147.133 19.24 147.197 19.24C147.379 19.24 147.533 19.176 147.661 19.048C147.789 18.9093 147.891 18.6907 147.965 18.392C148.051 18.0827 148.109 17.6827 148.141 17.192C148.184 16.7013 148.205 16.104 148.205 15.4V13.688H153.757V21H151.789V15.432H150.029V16.296C150.029 17.2133 149.971 17.9813 149.853 18.6C149.747 19.2187 149.581 19.72 149.357 20.104C149.144 20.4773 148.877 20.7493 148.557 20.92C148.248 21.08 147.891 21.16 147.485 21.16ZM159.199 21.112C158.612 21.112 158.073 21.0213 157.583 20.84C157.103 20.6587 156.687 20.408 156.335 20.088C155.983 19.7573 155.711 19.368 155.519 18.92C155.327 18.4613 155.231 17.9547 155.231 17.4C155.231 16.8133 155.332 16.2853 155.535 15.816C155.737 15.336 156.015 14.9307 156.367 14.6C156.719 14.2693 157.129 14.0133 157.599 13.832C158.068 13.6507 158.569 13.56 159.103 13.56C159.679 13.56 160.191 13.6613 160.639 13.864C161.097 14.056 161.481 14.328 161.791 14.68C162.1 15.0213 162.335 15.4267 162.495 15.896C162.665 16.3547 162.751 16.8507 162.751 17.384V17.8H157.151C157.247 18.3653 157.487 18.7973 157.871 19.096C158.265 19.3947 158.761 19.544 159.359 19.544C159.785 19.544 160.18 19.4693 160.543 19.32C160.916 19.16 161.225 18.9413 161.471 18.664L162.575 19.672C162.201 20.1413 161.721 20.4987 161.135 20.744C160.548 20.9893 159.903 21.112 159.199 21.112ZM159.023 15.16C158.553 15.16 158.159 15.288 157.839 15.544C157.529 15.7893 157.316 16.1413 157.199 16.6H160.847C160.783 16.1947 160.591 15.8533 160.271 15.576C159.951 15.2987 159.535 15.16 159.023 15.16ZM46.944 28.688H53.824V36H51.856V30.432H48.928V36H46.944V28.688ZM59.2453 36.112C58.6693 36.112 58.1359 36.0213 57.6453 35.84C57.1653 35.6587 56.7493 35.4027 56.3973 35.072C56.0559 34.7307 55.7839 34.3307 55.5813 33.872C55.3893 33.4133 55.2933 32.9013 55.2933 32.336C55.2933 31.7707 55.3893 31.2587 55.5813 30.8C55.7839 30.3307 56.0613 29.9307 56.4133 29.6C56.7653 29.2693 57.1813 29.0133 57.6613 28.832C58.1519 28.6507 58.6799 28.56 59.2453 28.56C59.8213 28.56 60.3493 28.6507 60.8293 28.832C61.3199 29.0133 61.7413 29.2747 62.0933 29.616C62.4453 29.9467 62.7173 30.3467 62.9093 30.816C63.1013 31.2747 63.1973 31.7813 63.1973 32.336C63.1973 32.912 63.0959 33.4347 62.8933 33.904C62.6906 34.3627 62.4133 34.7573 62.0613 35.088C61.7093 35.408 61.2933 35.6587 60.8133 35.84C60.3333 36.0213 59.8106 36.112 59.2453 36.112ZM59.2453 34.432C59.8319 34.432 60.2906 34.2347 60.6213 33.84C60.9519 33.4453 61.1173 32.944 61.1173 32.336C61.1173 31.728 60.9573 31.232 60.6373 30.848C60.3173 30.4533 59.8533 30.256 59.2453 30.256C58.6479 30.256 58.1839 30.4533 57.8533 30.848C57.5226 31.2427 57.3573 31.7387 57.3573 32.336C57.3573 32.624 57.3999 32.896 57.4853 33.152C57.5706 33.408 57.6933 33.632 57.8533 33.824C58.0133 34.016 58.2106 34.1653 58.4453 34.272C58.6799 34.3787 58.9466 34.432 59.2453 34.432ZM64.3134 36.16C64.196 36.16 64.0894 36.1547 63.9934 36.144C63.908 36.1333 63.8334 36.1227 63.7694 36.112V34.208C63.876 34.2293 63.9614 34.24 64.0254 34.24C64.2067 34.24 64.3614 34.176 64.4894 34.048C64.6174 33.9093 64.7187 33.6907 64.7934 33.392C64.8787 33.0827 64.9374 32.6827 64.9694 32.192C65.012 31.7013 65.0334 31.104 65.0334 30.4V28.688H70.5854V36H68.6174V30.432H66.8574V31.296C66.8574 32.2133 66.7987 32.9813 66.6814 33.6C66.5747 34.2187 66.4094 34.72 66.1854 35.104C65.972 35.4773 65.7054 35.7493 65.3854 35.92C65.076 36.08 64.7187 36.16 64.3134 36.16ZM73.4189 39.6L74.6509 36.08L71.6589 29.056V28.688H73.6429L75.5789 33.472L77.2749 28.688H79.0669L79.0509 29.056L75.2109 39.84H73.4189V39.6ZM84.3079 33.344C84.0945 33.44 83.8439 33.52 83.5559 33.584C83.2785 33.6373 82.9639 33.664 82.6119 33.664C82.1639 33.664 81.7585 33.6107 81.3959 33.504C81.0439 33.3973 80.7399 33.2267 80.4839 32.992C80.2279 32.7573 80.0305 32.4533 79.8919 32.08C79.7639 31.7067 79.6999 31.2533 79.6999 30.72V28.688H81.6839V30.64C81.6839 31.056 81.7799 31.376 81.9719 31.6C82.1639 31.8133 82.5479 31.92 83.1239 31.92C83.5612 31.92 83.9559 31.8667 84.3079 31.76V28.688H86.2919V36H84.3079V33.344ZM91.6206 36.112C91.034 36.112 90.4953 36.0213 90.0046 35.84C89.5246 35.6587 89.1086 35.408 88.7566 35.088C88.4046 34.7573 88.1326 34.368 87.9406 33.92C87.7486 33.4613 87.6526 32.9547 87.6526 32.4C87.6526 31.8133 87.754 31.2853 87.9566 30.816C88.1593 30.336 88.4366 29.9307 88.7886 29.6C89.1406 29.2693 89.5513 29.0133 90.0206 28.832C90.49 28.6507 90.9913 28.56 91.5246 28.56C92.1006 28.56 92.6126 28.6613 93.0606 28.864C93.5193 29.056 93.9033 29.328 94.2126 29.68C94.522 30.0213 94.7566 30.4267 94.9166 30.896C95.0873 31.3547 95.1726 31.8507 95.1726 32.384V32.8H89.5726C89.6686 33.3653 89.9086 33.7973 90.2926 34.096C90.6873 34.3947 91.1833 34.544 91.7806 34.544C92.2073 34.544 92.602 34.4693 92.9646 34.32C93.338 34.16 93.6473 33.9413 93.8926 33.664L94.9966 34.672C94.6233 35.1413 94.1433 35.4987 93.5566 35.744C92.97 35.9893 92.3246 36.112 91.6206 36.112ZM91.4446 30.16C90.9753 30.16 90.5806 30.288 90.2606 30.544C89.9513 30.7893 89.738 31.1413 89.6206 31.6H93.2686C93.2046 31.1947 93.0126 30.8533 92.6926 30.576C92.3726 30.2987 91.9566 30.16 91.4446 30.16ZM101.656 33.12H98.6155V36H96.6315V28.688H98.6155V31.376H101.656V28.688H103.64V36H101.656V33.12ZM105.522 28.688H107.506V32.896L110.898 28.688H112.45V36H110.466V31.552L106.882 36H105.522V28.688ZM113.887 35.728L115.439 33.408C114.585 33.0027 114.159 32.2827 114.159 31.248C114.159 30.4053 114.431 29.7707 114.975 29.344C115.529 28.9067 116.388 28.688 117.551 28.688H120.719V36H118.735V33.76H117.487L116.047 36H113.887V35.728ZM118.735 32.352V30.224H117.679C117.167 30.224 116.788 30.2987 116.543 30.448C116.297 30.5867 116.175 30.8587 116.175 31.264C116.175 31.6693 116.281 31.952 116.495 32.112C116.719 32.272 117.097 32.352 117.631 32.352H118.735ZM130.277 36.112C129.701 36.112 129.167 36.0213 128.677 35.84C128.197 35.6587 127.781 35.4027 127.429 35.072C127.087 34.7307 126.815 34.3307 126.613 33.872C126.421 33.4133 126.325 32.9013 126.325 32.336C126.325 31.7707 126.421 31.2587 126.613 30.8C126.815 30.3307 127.093 29.9307 127.445 29.6C127.797 29.2693 128.213 29.0133 128.693 28.832C129.183 28.6507 129.711 28.56 130.277 28.56C130.853 28.56 131.381 28.6507 131.861 28.832C132.351 29.0133 132.773 29.2747 133.125 29.616C133.477 29.9467 133.749 30.3467 133.941 30.816C134.133 31.2747 134.229 31.7813 134.229 32.336C134.229 32.912 134.127 33.4347 133.925 33.904C133.722 34.3627 133.445 34.7573 133.093 35.088C132.741 35.408 132.325 35.6587 131.845 35.84C131.365 36.0213 130.842 36.112 130.277 36.112ZM130.277 34.432C130.863 34.432 131.322 34.2347 131.653 33.84C131.983 33.4453 132.149 32.944 132.149 32.336C132.149 31.728 131.989 31.232 131.669 30.848C131.349 30.4533 130.885 30.256 130.277 30.256C129.679 30.256 129.215 30.4533 128.885 30.848C128.554 31.2427 128.389 31.7387 128.389 32.336C128.389 32.624 128.431 32.896 128.517 33.152C128.602 33.408 128.725 33.632 128.885 33.824C129.045 34.016 129.242 34.1653 129.477 34.272C129.711 34.3787 129.978 34.432 130.277 34.432ZM137.108 30.432H134.756V28.688H141.428V30.432H139.076V36H137.108V30.432ZM146.98 33.344C146.766 33.44 146.516 33.52 146.228 33.584C145.95 33.6373 145.636 33.664 145.284 33.664C144.836 33.664 144.43 33.6107 144.068 33.504C143.716 33.3973 143.412 33.2267 143.156 32.992C142.9 32.7573 142.702 32.4533 142.564 32.08C142.436 31.7067 142.372 31.2533 142.372 30.72V28.688H144.356V30.64C144.356 31.056 144.452 31.376 144.644 31.6C144.836 31.8133 145.22 31.92 145.796 31.92C146.233 31.92 146.628 31.8667 146.98 31.76V28.688H148.964V36H146.98V33.344ZM154.293 36.112C153.706 36.112 153.167 36.0213 152.677 35.84C152.197 35.6587 151.781 35.408 151.429 35.088C151.077 34.7573 150.805 34.368 150.613 33.92C150.421 33.4613 150.325 32.9547 150.325 32.4C150.325 31.8133 150.426 31.2853 150.629 30.816C150.831 30.336 151.109 29.9307 151.461 29.6C151.813 29.2693 152.223 29.0133 152.693 28.832C153.162 28.6507 153.663 28.56 154.197 28.56C154.773 28.56 155.285 28.6613 155.733 28.864C156.191 29.056 156.575 29.328 156.885 29.68C157.194 30.0213 157.429 30.4267 157.589 30.896C157.759 31.3547 157.845 31.8507 157.845 32.384V32.8H152.245C152.341 33.3653 152.581 33.7973 152.965 34.096C153.359 34.3947 153.855 34.544 154.453 34.544C154.879 34.544 155.274 34.4693 155.637 34.32C156.01 34.16 156.319 33.9413 156.565 33.664L157.669 34.672C157.295 35.1413 156.815 35.4987 156.229 35.744C155.642 35.9893 154.997 36.112 154.293 36.112ZM154.117 30.16C153.647 30.16 153.253 30.288 152.933 30.544C152.623 30.7893 152.41 31.1413 152.293 31.6H155.941C155.877 31.1947 155.685 30.8533 155.365 30.576C155.045 30.2987 154.629 30.16 154.117 30.16ZM160.749 30.432H158.397V28.688H165.069V30.432H162.717V36H160.749V30.432ZM168.983 36.112C168.545 36.112 168.119 36.0213 167.703 35.84C167.297 35.6587 166.935 35.4027 166.615 35.072C166.305 34.7413 166.055 34.3467 165.863 33.888C165.671 33.4187 165.575 32.9013 165.575 32.336C165.575 31.7707 165.665 31.2587 165.847 30.8C166.039 30.3307 166.289 29.9307 166.599 29.6C166.919 29.2693 167.281 29.0133 167.687 28.832C168.103 28.6507 168.535 28.56 168.983 28.56C169.527 28.56 170.007 28.6667 170.423 28.88C170.849 29.0933 171.185 29.3547 171.431 29.664V28.688H173.303V36H171.431V35.008C171.164 35.3387 170.817 35.6053 170.391 35.808C169.964 36.0107 169.495 36.112 168.983 36.112ZM169.511 34.416C170.055 34.416 170.487 34.2293 170.807 33.856C171.137 33.472 171.308 32.976 171.319 32.368V32.24C171.319 31.6747 171.153 31.2107 170.823 30.848C170.492 30.4853 170.055 30.304 169.511 30.304C169.265 30.304 169.031 30.3467 168.807 30.432C168.583 30.5173 168.385 30.6453 168.215 30.816C168.044 30.9867 167.911 31.2 167.815 31.456C167.719 31.712 167.671 32.0053 167.671 32.336C167.671 32.976 167.841 33.4827 168.183 33.856C168.535 34.2293 168.977 34.416 169.511 34.416Z" fill="#1B1B1B"/>
<path fill-rule="evenodd" clip-rule="evenodd" d="M13.656 10.1593C12.873 10.4672 12.2437 11.2661 12.0848 12.1541C11.9716 12.7861 11.9718 37.2167 12.0849 37.8429C12.1294 38.0885 12.2442 38.4478 12.3401 38.6414C12.5721 39.1098 13.1749 39.6523 13.677 39.8444C14.0796 39.9985 14.1786 40 23.9651 40C33.7777 40 33.8496 39.9989 34.2565 39.8431C35.0656 39.5335 35.7538 38.6642 35.9248 37.7359C35.9731 37.4737 36 33.9964 36 28.0125C36 19.8815 35.9859 18.6667 35.8887 18.4572C35.8275 18.3253 33.9608 16.3684 31.7405 14.1086L27.7037 10L20.8723 10.0039C14.2255 10.0078 14.0306 10.012 13.656 10.1593ZM26.3727 14.6212C26.4046 17.0274 26.4291 17.5101 26.5331 17.7755C26.8327 18.5403 27.3618 19.1214 28.0666 19.4595L28.4828 19.6591L31.3342 19.697L34.1855 19.7348L34.2043 28.6585C34.2252 38.5605 34.2562 37.9287 33.7386 38.1499C33.3612 38.3112 14.6431 38.3112 14.2657 38.1499C13.744 37.9269 13.7818 38.9545 13.7821 24.9848C13.7823 12.6097 13.7849 12.382 13.9274 12.143C14.0161 11.9942 14.1668 11.8718 14.3159 11.8277C14.4624 11.7843 16.9039 11.7605 20.4472 11.768L26.3351 11.7803L26.3727 14.6212ZM30.9829 17.863C29.9745 17.8751 29.0472 17.8662 28.9225 17.8432C28.7977 17.8202 28.581 17.6807 28.4411 17.533L28.1866 17.2645L28.1656 15.1664L28.1447 13.0682L30.4805 15.4545L32.8164 17.8409L30.9829 17.863ZM16.3286 14.4671C16.0479 14.5851 15.8555 14.9167 15.8555 15.2826C15.8555 15.7176 16.067 16.0294 16.4326 16.1333C16.8094 16.2403 23.3507 16.2386 23.7283 16.1313C24.2993 15.9691 24.4978 15.155 24.0824 14.6792L23.8662 14.4318L20.1756 14.4166C18.1458 14.4083 16.4146 14.431 16.3286 14.4671ZM16.2339 18.0603C15.9872 18.2002 15.8612 18.4658 15.858 18.8523C15.8559 19.1279 15.8966 19.2239 16.1073 19.4394L16.3591 19.697H20.0769H23.7948L24.0466 19.4394C24.252 19.2292 24.2984 19.1239 24.2984 18.8674C24.2984 18.4737 24.145 18.1624 23.8931 18.0451C23.5981 17.9076 16.4783 17.9217 16.2339 18.0603ZM16.2569 21.8292C15.7288 22.0913 15.7314 23.1477 16.2607 23.3943C16.4073 23.4627 18.3336 23.4848 24.1141 23.4848H31.7733L32.027 23.257C32.3349 22.9805 32.422 22.6198 32.2704 22.2487C32.0475 21.7031 32.6776 21.7418 24.1152 21.7476C19.0938 21.7509 16.3573 21.7793 16.2569 21.8292ZM23.0764 25.1299C20.7913 25.4531 18.8686 27.174 18.1398 29.5481C17.9883 30.0414 17.9665 30.2636 17.9683 31.2879C17.9703 32.2952 17.9949 32.5429 18.1413 33.0303C18.773 35.1321 20.4039 36.7263 22.4839 37.2752C23.3004 37.4906 24.6215 37.4918 25.4463 37.2778C27.7331 36.6844 29.5527 34.6753 29.9242 32.3338C30.4603 28.9545 28.3726 25.8658 25.0977 25.193C24.5706 25.0848 23.6079 25.0547 23.0764 25.1299ZM24.9058 26.9765C25.1216 27.022 25.5662 27.1899 25.8936 27.3498C26.9161 27.8489 27.6665 28.7342 28.0437 29.8864C28.3036 30.6801 28.3208 31.8159 28.0845 32.5758C27.2775 35.1702 24.4541 36.4014 22.0213 35.2196C21.3074 34.8727 20.4648 34.001 20.1147 33.2468C19.8368 32.6483 19.636 31.8366 19.6338 31.3036C19.6295 30.2111 20.1378 28.9509 20.8966 28.1727C21.4274 27.6284 22.3427 27.099 22.9653 26.9762C23.4491 26.8808 24.4518 26.881 24.9058 26.9765ZM25.0888 29.0941C24.9831 29.1792 24.5317 29.7421 24.0857 30.3451L23.2747 31.4413L23.1148 31.1764C22.785 30.6306 22.3329 30.4666 21.8552 30.7192C21.5521 30.8795 21.41 31.1218 21.41 31.478C21.41 31.7373 21.4977 31.9161 21.9655 32.6111C22.271 33.065 22.6125 33.4982 22.7246 33.5737C23.0297 33.7795 23.4259 33.7521 23.7126 33.5053C24.058 33.208 26.3657 30.2417 26.4183 30.0274C26.4956 29.7126 26.3797 29.3383 26.1417 29.1333C25.8533 28.8851 25.3709 28.8671 25.0888 29.0941Z" fill="#C3D22E"/>
</svg>
