<svg width="259" height="33" viewBox="0 0 259 33" fill="none" xmlns="http://www.w3.org/2000/svg">
<rect width="259" height="33" rx="5" fill="white"/>
<path d="M32.808 20.098C32.2947 20.098 31.8327 20.0187 31.422 19.86C31.0113 19.7013 30.6567 19.482 30.358 19.202C30.0687 18.9127 29.8447 18.5673 29.686 18.166C29.5273 17.7647 29.448 17.3167 29.448 16.822C29.448 16.2993 29.532 15.8327 29.7 15.422C29.8773 15.002 30.1153 14.652 30.414 14.372C30.7127 14.0827 31.0673 13.8633 31.478 13.714C31.8887 13.5647 32.332 13.49 32.808 13.49C33.3493 13.49 33.8393 13.5833 34.278 13.77C34.726 13.9567 35.076 14.19 35.328 14.47L34.432 15.646C34.2453 15.4407 34.026 15.2773 33.774 15.156C33.5313 15.0347 33.256 14.974 32.948 14.974C32.4253 14.974 32.01 15.142 31.702 15.478C31.4033 15.814 31.254 16.2433 31.254 16.766C31.254 17.3073 31.408 17.7553 31.716 18.11C32.0333 18.4553 32.458 18.628 32.99 18.628C33.298 18.628 33.5733 18.5673 33.816 18.446C34.0587 18.3153 34.2733 18.1473 34.46 17.942L35.482 18.95C35.202 19.314 34.8287 19.5987 34.362 19.804C33.9047 20 33.3867 20.098 32.808 20.098ZM43.2419 20.098C42.7379 20.098 42.2713 20.0187 41.8419 19.86C41.4219 19.7013 41.0579 19.4773 40.7499 19.188C40.4513 18.8893 40.2133 18.5393 40.0359 18.138C39.8679 17.7367 39.7839 17.2887 39.7839 16.794C39.7839 16.2993 39.8679 15.8513 40.0359 15.45C40.2133 15.0393 40.4559 14.6893 40.7639 14.4C41.0719 14.1107 41.4359 13.8867 41.8559 13.728C42.2853 13.5693 42.7473 13.49 43.2419 13.49C43.7459 13.49 44.2079 13.5693 44.6279 13.728C45.0573 13.8867 45.4259 14.1153 45.7339 14.414C46.0419 14.7033 46.2799 15.0533 46.4479 15.464C46.6159 15.8653 46.6999 16.3087 46.6999 16.794C46.6999 17.298 46.6113 17.7553 46.4339 18.166C46.2566 18.5673 46.0139 18.9127 45.7059 19.202C45.3979 19.482 45.0339 19.7013 44.6139 19.86C44.1939 20.0187 43.7366 20.098 43.2419 20.098ZM43.2419 18.628C43.7553 18.628 44.1566 18.4553 44.4459 18.11C44.7353 17.7647 44.8799 17.326 44.8799 16.794C44.8799 16.262 44.7399 15.828 44.4599 15.492C44.1799 15.1467 43.7739 14.974 43.2419 14.974C42.7193 14.974 42.3133 15.1467 42.0239 15.492C41.7346 15.8373 41.5899 16.2713 41.5899 16.794C41.5899 17.046 41.6273 17.284 41.7019 17.508C41.7766 17.732 41.8839 17.928 42.0239 18.096C42.1639 18.264 42.3366 18.3947 42.5419 18.488C42.7473 18.5813 42.9806 18.628 43.2419 18.628ZM47.9549 13.602H53.9749V20H52.2529V15.128H49.6909V20H47.9549V13.602ZM55.4285 20.14C55.3258 20.14 55.2325 20.1353 55.1485 20.126C55.0738 20.1167 55.0085 20.1073 54.9525 20.098V18.432C55.0458 18.4507 55.1205 18.46 55.1765 18.46C55.3352 18.46 55.4705 18.404 55.5825 18.292C55.6945 18.1707 55.7832 17.9793 55.8485 17.718C55.9232 17.4473 55.9745 17.0973 56.0025 16.668C56.0398 16.2387 56.0585 15.716 56.0585 15.1V13.602H60.9165V20H59.1945V15.128H57.6545V15.884C57.6545 16.6867 57.6032 17.3587 57.5005 17.9C57.4072 18.4413 57.2625 18.88 57.0665 19.216C56.8798 19.5427 56.6465 19.7807 56.3665 19.93C56.0958 20.07 55.7832 20.14 55.4285 20.14ZM65.1878 20.098C64.8051 20.098 64.4318 20.0187 64.0678 19.86C63.7131 19.7013 63.3958 19.4773 63.1158 19.188C62.8451 18.8987 62.6258 18.5533 62.4578 18.152C62.2898 17.7413 62.2058 17.2887 62.2058 16.794C62.2058 16.2993 62.2851 15.8513 62.4438 15.45C62.6118 15.0393 62.8311 14.6893 63.1018 14.4C63.3818 14.1107 63.6991 13.8867 64.0538 13.728C64.4178 13.5693 64.7958 13.49 65.1878 13.49C65.6638 13.49 66.0838 13.5833 66.4478 13.77C66.8211 13.9567 67.1151 14.1853 67.3298 14.456V13.602H68.9678V20H67.3298V19.132C67.0965 19.4213 66.7931 19.6547 66.4198 19.832C66.0465 20.0093 65.6358 20.098 65.1878 20.098ZM65.6498 18.614C66.1258 18.614 66.5038 18.4507 66.7838 18.124C67.0731 17.788 67.2225 17.354 67.2318 16.822V16.71C67.2318 16.2153 67.0871 15.8093 66.7978 15.492C66.5085 15.1747 66.1258 15.016 65.6498 15.016C65.4351 15.016 65.2298 15.0533 65.0338 15.128C64.8378 15.2027 64.6651 15.3147 64.5158 15.464C64.3665 15.6133 64.2498 15.8 64.1658 16.024C64.0818 16.248 64.0398 16.5047 64.0398 16.794C64.0398 17.354 64.1891 17.7973 64.4878 18.124C64.7958 18.4507 65.1831 18.614 65.6498 18.614ZM72.0929 15.128H70.0349V13.602H75.8729V15.128H73.8149V20H72.0929V15.128ZM79.7732 20.098C79.2692 20.098 78.8025 20.0187 78.3732 19.86C77.9532 19.7013 77.5892 19.4773 77.2812 19.188C76.9825 18.8893 76.7445 18.5393 76.5672 18.138C76.3992 17.7367 76.3152 17.2887 76.3152 16.794C76.3152 16.2993 76.3992 15.8513 76.5672 15.45C76.7445 15.0393 76.9872 14.6893 77.2952 14.4C77.6032 14.1107 77.9672 13.8867 78.3872 13.728C78.8165 13.5693 79.2785 13.49 79.7732 13.49C80.2772 13.49 80.7392 13.5693 81.1592 13.728C81.5885 13.8867 81.9572 14.1153 82.2652 14.414C82.5732 14.7033 82.8112 15.0533 82.9792 15.464C83.1472 15.8653 83.2312 16.3087 83.2312 16.794C83.2312 17.298 83.1425 17.7553 82.9652 18.166C82.7879 18.5673 82.5452 18.9127 82.2372 19.202C81.9292 19.482 81.5652 19.7013 81.1452 19.86C80.7252 20.0187 80.2679 20.098 79.7732 20.098ZM79.7732 18.628C80.2865 18.628 80.6879 18.4553 80.9772 18.11C81.2665 17.7647 81.4112 17.326 81.4112 16.794C81.4112 16.262 81.2712 15.828 80.9912 15.492C80.7112 15.1467 80.3052 14.974 79.7732 14.974C79.2505 14.974 78.8445 15.1467 78.5552 15.492C78.2659 15.8373 78.1212 16.2713 78.1212 16.794C78.1212 17.046 78.1585 17.284 78.2332 17.508C78.3079 17.732 78.4152 17.928 78.5552 18.096C78.6952 18.264 78.8679 18.3947 79.0732 18.488C79.2785 18.5813 79.5119 18.628 79.7732 18.628ZM84.4862 13.602H86.2222V17.284L89.1902 13.602H90.5482V20H88.8122V16.108L85.6762 20H84.4862V13.602ZM87.5102 12.776C87.2208 12.776 86.9455 12.7387 86.6842 12.664C86.4322 12.58 86.2082 12.4587 86.0122 12.3C85.8255 12.1413 85.6762 11.9407 85.5642 11.698C85.4522 11.446 85.3915 11.1567 85.3822 10.83H86.6282C86.6468 11.082 86.7262 11.2873 86.8662 11.446C87.0062 11.6047 87.2302 11.684 87.5382 11.684C87.8368 11.684 88.0562 11.6093 88.1962 11.46C88.3455 11.3013 88.4295 11.0913 88.4482 10.83H89.6802C89.6708 11.1567 89.6055 11.446 89.4842 11.698C89.3628 11.9407 89.2042 12.1413 89.0082 12.3C88.8122 12.4587 88.5835 12.58 88.3222 12.664C88.0608 12.7387 87.7902 12.776 87.5102 12.776ZM95.8338 13.602H101.854V20H100.132V15.128H97.5698V20H95.8338V13.602ZM106.597 20.098C106.093 20.098 105.627 20.0187 105.197 19.86C104.777 19.7013 104.413 19.4773 104.105 19.188C103.807 18.8893 103.569 18.5393 103.391 18.138C103.223 17.7367 103.139 17.2887 103.139 16.794C103.139 16.2993 103.223 15.8513 103.391 15.45C103.569 15.0393 103.811 14.6893 104.119 14.4C104.427 14.1107 104.791 13.8867 105.211 13.728C105.641 13.5693 106.103 13.49 106.597 13.49C107.101 13.49 107.563 13.5693 107.983 13.728C108.413 13.8867 108.781 14.1153 109.089 14.414C109.397 14.7033 109.635 15.0533 109.803 15.464C109.971 15.8653 110.055 16.3087 110.055 16.794C110.055 17.298 109.967 17.7553 109.789 18.166C109.612 18.5673 109.369 18.9127 109.061 19.202C108.753 19.482 108.389 19.7013 107.969 19.86C107.549 20.0187 107.092 20.098 106.597 20.098ZM106.597 18.628C107.111 18.628 107.512 18.4553 107.801 18.11C108.091 17.7647 108.235 17.326 108.235 16.794C108.235 16.262 108.095 15.828 107.815 15.492C107.535 15.1467 107.129 14.974 106.597 14.974C106.075 14.974 105.669 15.1467 105.379 15.492C105.09 15.8373 104.945 16.2713 104.945 16.794C104.945 17.046 104.983 17.284 105.057 17.508C105.132 17.732 105.239 17.928 105.379 18.096C105.519 18.264 105.692 18.3947 105.897 18.488C106.103 18.5813 106.336 18.628 106.597 18.628ZM114.292 20.098C113.779 20.098 113.317 20.0187 112.906 19.86C112.496 19.7013 112.141 19.482 111.842 19.202C111.553 18.9127 111.329 18.5673 111.17 18.166C111.012 17.7647 110.932 17.3167 110.932 16.822C110.932 16.2993 111.016 15.8327 111.184 15.422C111.362 15.002 111.6 14.652 111.898 14.372C112.197 14.0827 112.552 13.8633 112.962 13.714C113.373 13.5647 113.816 13.49 114.292 13.49C114.834 13.49 115.324 13.5833 115.762 13.77C116.21 13.9567 116.56 14.19 116.812 14.47L115.916 15.646C115.73 15.4407 115.51 15.2773 115.258 15.156C115.016 15.0347 114.74 14.974 114.432 14.974C113.91 14.974 113.494 15.142 113.186 15.478C112.888 15.814 112.738 16.2433 112.738 16.766C112.738 17.3073 112.892 17.7553 113.2 18.11C113.518 18.4553 113.942 18.628 114.474 18.628C114.782 18.628 115.058 18.5673 115.3 18.446C115.543 18.3153 115.758 18.1473 115.944 17.942L116.966 18.95C116.686 19.314 116.313 19.5987 115.846 19.804C115.389 20 114.871 20.098 114.292 20.098ZM117.8 20.14C117.697 20.14 117.604 20.1353 117.52 20.126C117.445 20.1167 117.38 20.1073 117.324 20.098V18.432C117.417 18.4507 117.492 18.46 117.548 18.46C117.706 18.46 117.842 18.404 117.954 18.292C118.066 18.1707 118.154 17.9793 118.22 17.718C118.294 17.4473 118.346 17.0973 118.374 16.668C118.411 16.2387 118.43 15.716 118.43 15.1V13.602H123.288V20H121.566V15.128H120.026V15.884C120.026 16.6867 119.974 17.3587 119.872 17.9C119.778 18.4413 119.634 18.88 119.438 19.216C119.251 19.5427 119.018 19.7807 118.738 19.93C118.467 20.07 118.154 20.14 117.8 20.14ZM128.049 20.098C127.536 20.098 127.064 20.0187 126.635 19.86C126.215 19.7013 125.851 19.482 125.543 19.202C125.235 18.9127 124.997 18.572 124.829 18.18C124.661 17.7787 124.577 17.3353 124.577 16.85C124.577 16.3367 124.666 15.8747 124.843 15.464C125.02 15.044 125.263 14.6893 125.571 14.4C125.879 14.1107 126.238 13.8867 126.649 13.728C127.06 13.5693 127.498 13.49 127.965 13.49C128.469 13.49 128.917 13.5787 129.309 13.756C129.71 13.924 130.046 14.162 130.317 14.47C130.588 14.7687 130.793 15.1233 130.933 15.534C131.082 15.9353 131.157 16.3693 131.157 16.836V17.2H126.257C126.341 17.6947 126.551 18.0727 126.887 18.334C127.232 18.5953 127.666 18.726 128.189 18.726C128.562 18.726 128.908 18.6607 129.225 18.53C129.552 18.39 129.822 18.1987 130.037 17.956L131.003 18.838C130.676 19.2487 130.256 19.5613 129.743 19.776C129.23 19.9907 128.665 20.098 128.049 20.098ZM127.895 14.89C127.484 14.89 127.139 15.002 126.859 15.226C126.588 15.4407 126.402 15.7487 126.299 16.15H129.491C129.435 15.7953 129.267 15.4967 128.987 15.254C128.707 15.0113 128.343 14.89 127.895 14.89ZM136.07 13.602H142.09V20H140.368V15.128H137.806V20H136.07V13.602ZM146.834 20.098C146.33 20.098 145.863 20.0187 145.434 19.86C145.014 19.7013 144.65 19.4773 144.342 19.188C144.043 18.8893 143.805 18.5393 143.628 18.138C143.46 17.7367 143.376 17.2887 143.376 16.794C143.376 16.2993 143.46 15.8513 143.628 15.45C143.805 15.0393 144.048 14.6893 144.356 14.4C144.664 14.1107 145.028 13.8867 145.448 13.728C145.877 13.5693 146.339 13.49 146.834 13.49C147.338 13.49 147.8 13.5693 148.22 13.728C148.649 13.8867 149.018 14.1153 149.326 14.414C149.634 14.7033 149.872 15.0533 150.04 15.464C150.208 15.8653 150.292 16.3087 150.292 16.794C150.292 17.298 150.203 17.7553 150.026 18.166C149.848 18.5673 149.606 18.9127 149.298 19.202C148.99 19.482 148.626 19.7013 148.206 19.86C147.786 20.0187 147.328 20.098 146.834 20.098ZM146.834 18.628C147.347 18.628 147.748 18.4553 148.038 18.11C148.327 17.7647 148.472 17.326 148.472 16.794C148.472 16.262 148.332 15.828 148.052 15.492C147.772 15.1467 147.366 14.974 146.834 14.974C146.311 14.974 145.905 15.1467 145.616 15.492C145.326 15.8373 145.182 16.2713 145.182 16.794C145.182 17.046 145.219 17.284 145.294 17.508C145.368 17.732 145.476 17.928 145.616 18.096C145.756 18.264 145.928 18.3947 146.134 18.488C146.339 18.5813 146.572 18.628 146.834 18.628ZM151.268 20.14C151.166 20.14 151.072 20.1353 150.988 20.126C150.914 20.1167 150.848 20.1073 150.792 20.098V18.432C150.886 18.4507 150.96 18.46 151.016 18.46C151.175 18.46 151.31 18.404 151.422 18.292C151.534 18.1707 151.623 17.9793 151.688 17.718C151.763 17.4473 151.814 17.0973 151.842 16.668C151.88 16.2387 151.898 15.716 151.898 15.1V13.602H156.756V20H155.034V15.128H153.494V15.884C153.494 16.6867 153.443 17.3587 153.34 17.9C153.247 18.4413 153.102 18.88 152.906 19.216C152.72 19.5427 152.486 19.7807 152.206 19.93C151.936 20.07 151.623 20.14 151.268 20.14ZM159.236 23.15L160.314 20.07L157.696 13.924V13.602H159.432L161.126 17.788L162.61 13.602H164.178L164.164 13.924L160.804 23.36H159.236V23.15ZM168.764 17.676C168.577 17.76 168.358 17.83 168.106 17.886C167.863 17.9327 167.588 17.956 167.28 17.956C166.888 17.956 166.533 17.9093 166.216 17.816C165.908 17.7227 165.642 17.5733 165.418 17.368C165.194 17.1627 165.021 16.8967 164.9 16.57C164.788 16.2433 164.732 15.8467 164.732 15.38V13.602H166.468V15.31C166.468 15.674 166.552 15.954 166.72 16.15C166.888 16.3367 167.224 16.43 167.728 16.43C168.11 16.43 168.456 16.3833 168.764 16.29V13.602H170.5V20H168.764V17.676ZM175.162 20.098C174.649 20.098 174.178 20.0187 173.748 19.86C173.328 19.7013 172.964 19.482 172.656 19.202C172.348 18.9127 172.11 18.572 171.942 18.18C171.774 17.7787 171.69 17.3353 171.69 16.85C171.69 16.3367 171.779 15.8747 171.956 15.464C172.134 15.044 172.376 14.6893 172.684 14.4C172.992 14.1107 173.352 13.8867 173.762 13.728C174.173 13.5693 174.612 13.49 175.078 13.49C175.582 13.49 176.03 13.5787 176.422 13.756C176.824 13.924 177.16 14.162 177.43 14.47C177.701 14.7687 177.906 15.1233 178.046 15.534C178.196 15.9353 178.27 16.3693 178.27 16.836V17.2H173.37C173.454 17.6947 173.664 18.0727 174 18.334C174.346 18.5953 174.78 18.726 175.302 18.726C175.676 18.726 176.021 18.6607 176.338 18.53C176.665 18.39 176.936 18.1987 177.15 17.956L178.116 18.838C177.79 19.2487 177.37 19.5613 176.856 19.776C176.343 19.9907 175.778 20.098 175.162 20.098ZM175.008 14.89C174.598 14.89 174.252 15.002 173.972 15.226C173.702 15.4407 173.515 15.7487 173.412 16.15H176.604C176.548 15.7953 176.38 15.4967 176.1 15.254C175.82 15.0113 175.456 14.89 175.008 14.89ZM183.943 17.48H181.283V20H179.547V13.602H181.283V15.954H183.943V13.602H185.679V20H183.943V17.48ZM187.326 13.602H189.062V17.284L192.03 13.602H193.388V20H191.652V16.108L188.516 20H187.326V13.602ZM194.645 19.762L196.003 17.732C195.256 17.3773 194.883 16.7473 194.883 15.842C194.883 15.1047 195.121 14.5493 195.597 14.176C196.082 13.7933 196.834 13.602 197.851 13.602H200.623V20H198.887V18.04H197.795L196.535 20H194.645V19.762ZM198.887 16.808V14.946H197.963C197.515 14.946 197.184 15.0113 196.969 15.142C196.754 15.2633 196.647 15.5013 196.647 15.856C196.647 16.2107 196.74 16.458 196.927 16.598C197.123 16.738 197.454 16.808 197.921 16.808H198.887ZM208.986 20.098C208.482 20.098 208.015 20.0187 207.586 19.86C207.166 19.7013 206.802 19.4773 206.494 19.188C206.195 18.8893 205.957 18.5393 205.78 18.138C205.612 17.7367 205.528 17.2887 205.528 16.794C205.528 16.2993 205.612 15.8513 205.78 15.45C205.957 15.0393 206.2 14.6893 206.508 14.4C206.816 14.1107 207.18 13.8867 207.6 13.728C208.029 13.5693 208.491 13.49 208.986 13.49C209.49 13.49 209.952 13.5693 210.372 13.728C210.801 13.8867 211.17 14.1153 211.478 14.414C211.786 14.7033 212.024 15.0533 212.192 15.464C212.36 15.8653 212.444 16.3087 212.444 16.794C212.444 17.298 212.355 17.7553 212.178 18.166C212.001 18.5673 211.758 18.9127 211.45 19.202C211.142 19.482 210.778 19.7013 210.358 19.86C209.938 20.0187 209.481 20.098 208.986 20.098ZM208.986 18.628C209.499 18.628 209.901 18.4553 210.19 18.11C210.479 17.7647 210.624 17.326 210.624 16.794C210.624 16.262 210.484 15.828 210.204 15.492C209.924 15.1467 209.518 14.974 208.986 14.974C208.463 14.974 208.057 15.1467 207.768 15.492C207.479 15.8373 207.334 16.2713 207.334 16.794C207.334 17.046 207.371 17.284 207.446 17.508C207.521 17.732 207.628 17.928 207.768 18.096C207.908 18.264 208.081 18.3947 208.286 18.488C208.491 18.5813 208.725 18.628 208.986 18.628ZM214.964 15.128H212.906V13.602H218.744V15.128H216.686V20H214.964V15.128ZM223.601 17.676C223.415 17.76 223.195 17.83 222.943 17.886C222.701 17.9327 222.425 17.956 222.117 17.956C221.725 17.956 221.371 17.9093 221.053 17.816C220.745 17.7227 220.479 17.5733 220.255 17.368C220.031 17.1627 219.859 16.8967 219.737 16.57C219.625 16.2433 219.569 15.8467 219.569 15.38V13.602H221.305V15.31C221.305 15.674 221.389 15.954 221.557 16.15C221.725 16.3367 222.061 16.43 222.565 16.43C222.948 16.43 223.293 16.3833 223.601 16.29V13.602H225.337V20H223.601V17.676ZM230 20.098C229.487 20.098 229.015 20.0187 228.586 19.86C228.166 19.7013 227.802 19.482 227.494 19.202C227.186 18.9127 226.948 18.572 226.78 18.18C226.612 17.7787 226.528 17.3353 226.528 16.85C226.528 16.3367 226.617 15.8747 226.794 15.464C226.971 15.044 227.214 14.6893 227.522 14.4C227.83 14.1107 228.189 13.8867 228.6 13.728C229.011 13.5693 229.449 13.49 229.916 13.49C230.42 13.49 230.868 13.5787 231.26 13.756C231.661 13.924 231.997 14.162 232.268 14.47C232.539 14.7687 232.744 15.1233 232.884 15.534C233.033 15.9353 233.108 16.3693 233.108 16.836V17.2H228.208C228.292 17.6947 228.502 18.0727 228.838 18.334C229.183 18.5953 229.617 18.726 230.14 18.726C230.513 18.726 230.859 18.6607 231.176 18.53C231.503 18.39 231.773 18.1987 231.988 17.956L232.954 18.838C232.627 19.2487 232.207 19.5613 231.694 19.776C231.181 19.9907 230.616 20.098 230 20.098ZM229.846 14.89C229.435 14.89 229.09 15.002 228.81 15.226C228.539 15.4407 228.353 15.7487 228.25 16.15H231.442C231.386 15.7953 231.218 15.4967 230.938 15.254C230.658 15.0113 230.294 14.89 229.846 14.89ZM235.65 15.128H233.592V13.602H239.43V15.128H237.372V20H235.65V15.128ZM242.854 20.098C242.471 20.098 242.098 20.0187 241.734 19.86C241.379 19.7013 241.062 19.4773 240.782 19.188C240.511 18.8987 240.292 18.5533 240.124 18.152C239.956 17.7413 239.872 17.2887 239.872 16.794C239.872 16.2993 239.951 15.8513 240.11 15.45C240.278 15.0393 240.497 14.6893 240.768 14.4C241.048 14.1107 241.365 13.8867 241.72 13.728C242.084 13.5693 242.462 13.49 242.854 13.49C243.33 13.49 243.75 13.5833 244.114 13.77C244.487 13.9567 244.781 14.1853 244.996 14.456V13.602H246.634V20H244.996V19.132C244.762 19.4213 244.459 19.6547 244.086 19.832C243.712 20.0093 243.302 20.098 242.854 20.098ZM243.316 18.614C243.792 18.614 244.17 18.4507 244.45 18.124C244.739 17.788 244.888 17.354 244.898 16.822V16.71C244.898 16.2153 244.753 15.8093 244.464 15.492C244.174 15.1747 243.792 15.016 243.316 15.016C243.101 15.016 242.896 15.0533 242.7 15.128C242.504 15.2027 242.331 15.3147 242.182 15.464C242.032 15.6133 241.916 15.8 241.832 16.024C241.748 16.248 241.706 16.5047 241.706 16.794C241.706 17.354 241.855 17.7973 242.154 18.124C242.462 18.4507 242.849 18.614 243.316 18.614Z" fill="#1B1B1B"/>
<path fill-rule="evenodd" clip-rule="evenodd" d="M10.035 7.1009C9.54564 7.29589 9.15233 7.80189 9.053 8.36426C8.98227 8.76455 8.98236 24.2372 9.05309 24.6338C9.08087 24.7894 9.15261 25.0169 9.21255 25.1396C9.35757 25.4362 9.73431 25.7798 10.0481 25.9015C10.2998 25.999 10.3617 26 16.4782 26C22.611 26 22.656 25.9993 22.9103 25.9006C23.416 25.7045 23.8461 25.154 23.953 24.5661C23.9832 24.4 24 22.1977 24 18.4079C24 13.2583 23.9912 12.4889 23.9304 12.3562C23.8922 12.2727 22.7255 11.0333 21.3378 9.60214L18.8148 7L14.5452 7.00249C10.391 7.00494 10.2691 7.00758 10.035 7.1009ZM17.9829 9.92677C18.0029 11.4507 18.0182 11.7564 18.0832 11.9245C18.2704 12.4089 18.6012 12.7769 19.0416 12.991L19.3018 13.1174L21.0839 13.1414L22.8659 13.1654L22.8777 18.817C22.8908 25.0883 22.9101 24.6882 22.5866 24.8283C22.3508 24.9304 10.6519 24.9304 10.416 24.8283C10.09 24.687 10.1136 25.3379 10.1138 16.4904C10.1139 8.65281 10.1155 8.50863 10.2046 8.35725C10.2601 8.26297 10.3542 8.18548 10.4474 8.15756C10.539 8.13007 12.0649 8.115 14.2795 8.1197L17.9594 8.12753L17.9829 9.92677ZM20.8643 11.9799C20.2341 11.9875 19.6545 11.9819 19.5765 11.9673C19.4985 11.9528 19.3631 11.8644 19.2757 11.7709L19.1166 11.6009L19.1035 10.272L19.0904 8.94318L20.5503 10.4545L22.0103 11.9659L20.8643 11.9799ZM11.7053 9.82918C11.5299 9.90388 11.4097 10.1139 11.4097 10.3456C11.4097 10.6211 11.5419 10.8186 11.7704 10.8844C12.0059 10.9522 16.0942 10.9511 16.3302 10.8831C16.687 10.7804 16.8111 10.2648 16.5515 9.96352L16.4164 9.80682L14.1098 9.79717C12.8411 9.7919 11.7591 9.80629 11.7053 9.82918ZM11.6462 12.1049C11.492 12.1934 11.4132 12.3617 11.4113 12.6064C11.4099 12.781 11.4354 12.8418 11.567 12.9783L11.7244 13.1414H14.0481H16.3717L16.5291 12.9783C16.6575 12.8452 16.6865 12.7785 16.6865 12.616C16.6865 12.3667 16.5906 12.1695 16.4332 12.0952C16.2488 12.0081 11.7989 12.0171 11.6462 12.1049ZM11.6605 14.4918C11.3305 14.6578 11.3321 15.3268 11.6629 15.4831C11.7546 15.5263 12.9585 15.5404 16.5713 15.5404H21.3583L21.5169 15.3961C21.7093 15.221 21.7637 14.9926 21.669 14.7575C21.5297 14.412 21.9235 14.4365 16.572 14.4401C13.4336 14.4422 11.7233 14.4602 11.6605 14.4918ZM15.9227 16.5823C14.4946 16.787 13.2929 17.8769 12.8374 19.3805C12.7427 19.6929 12.7291 19.8336 12.7302 20.4823C12.7314 21.1203 12.7468 21.2772 12.8383 21.5859C13.2331 22.917 14.2524 23.9266 15.5524 24.2743C16.0628 24.4107 16.8884 24.4115 17.404 24.2759C18.8332 23.9001 19.9704 22.6277 20.2026 21.1447C20.5377 19.0045 19.2329 17.0484 17.186 16.6223C16.8566 16.5537 16.255 16.5346 15.9227 16.5823ZM17.0661 17.7518C17.201 17.7806 17.4789 17.887 17.6835 17.9882C18.3226 18.3043 18.7916 18.865 19.0273 19.5947C19.1897 20.0974 19.2005 20.8167 19.0528 21.298C18.5484 22.9411 16.7838 23.7209 15.2633 22.9724C14.8171 22.7527 14.2905 22.2006 14.0717 21.723C13.898 21.3439 13.7725 20.8298 13.7711 20.4923C13.7685 19.8004 14.0861 19.0022 14.5604 18.5094C14.8921 18.1647 15.4642 17.8294 15.8533 17.7516C16.1557 17.6912 16.7824 17.6913 17.0661 17.7518ZM17.1805 19.0929C17.1144 19.1469 16.8323 19.5033 16.5536 19.8852L16.0467 20.5795L15.9467 20.4117C15.7406 20.0661 15.4581 19.9622 15.1595 20.1222C14.9701 20.2237 14.8813 20.3772 14.8813 20.6027C14.8813 20.7669 14.9361 20.8802 15.2284 21.3204C15.4194 21.6078 15.6328 21.8822 15.7029 21.93C15.8936 22.0604 16.1412 22.043 16.3204 21.8867C16.5362 21.6984 17.9786 19.8197 18.0114 19.684C18.0597 19.4846 17.9873 19.2476 17.8386 19.1178C17.6583 18.9605 17.3568 18.9492 17.1805 19.0929Z" fill="#C3D22E"/>
</svg>
