<svg width="16" height="16" viewBox="0 0 16 16" fill="none" xmlns="http://www.w3.org/2000/svg">
<path fill-rule="evenodd" clip-rule="evenodd" d="M6.75073 0.0904103C3.87007 0.595019 1.45579 2.58261 0.504458 5.23253C0.207967 6.0583 0.0731695 6.87662 0.0691663 7.87502C0.0637869 9.19801 0.270705 10.1489 0.819402 11.3229L1.10032 11.924L0.541238 13.9508C0.233737 15.0655 -0.00971028 15.9874 0.000297866 15.9996C0.0102435 16.0117 0.963394 15.7751 2.1184 15.4737L4.21842 14.9259L4.70268 15.1508C5.6908 15.6097 6.56445 15.8192 7.68961 15.8673C10.8209 16.0011 13.8056 14.2491 15.1938 11.4622C15.7653 10.3151 16 9.28905 16 7.93758C16 5.73958 15.2328 3.88739 13.6657 2.30249C12.5079 1.13154 11.0298 0.362642 9.41377 0.0907232C8.69581 -0.0300949 7.43935 -0.0302827 6.75073 0.0904103ZM9.61969 1.52071C10.8288 1.82748 11.733 2.32771 12.6227 3.18213C13.5263 4.04988 14.1366 5.08625 14.4576 6.29794C14.5979 6.82776 14.6186 7.03292 14.6198 7.9063C14.6209 8.7947 14.6024 8.97783 14.4546 9.53306C13.7662 12.1187 11.6381 14.0102 8.95508 14.421C7.66272 14.6189 6.35328 14.4024 5.10264 13.7839L4.39287 13.4329L3.19483 13.7449C2.53599 13.9164 1.98798 14.0484 1.97716 14.0381C1.96633 14.0278 2.10276 13.4894 2.2804 12.8417C2.59034 11.7113 2.5991 11.6576 2.49927 11.5058C2.24256 11.1152 1.76667 10.0411 1.65058 9.59018C1.25619 8.0579 1.4202 6.47231 2.12352 5.01818C3.08024 3.04023 4.97785 1.6745 7.18858 1.37273C7.84812 1.2827 8.94489 1.34946 9.61969 1.52071ZM5.11258 4.25072C4.80796 4.31348 4.6741 4.42109 4.41139 4.81464C3.84887 5.65718 3.82779 6.43358 4.33995 7.44174C4.59772 7.94916 4.78225 8.21194 5.39137 8.93936C6.31531 10.0427 7.01776 10.6118 8.0566 11.0986C9.7977 11.9144 10.7622 11.9216 11.6258 11.1255C11.8406 10.9274 11.9371 10.7771 12.0097 10.5273C12.1456 10.0599 12.1102 9.7451 11.9112 9.64994C11.1404 9.2816 10.3336 8.93279 10.1825 8.90257C10.0136 8.86878 9.96678 8.90432 9.6118 9.33704C9.39907 9.59619 9.17476 9.83526 9.11321 9.86817C8.90917 9.97742 7.97228 9.50397 7.2871 8.94536C6.96778 8.68508 6.33307 7.90837 6.15618 7.56155L6.03533 7.32461L6.17407 7.13397C6.25044 7.0291 6.40438 6.81706 6.51616 6.66277C6.62794 6.50841 6.71945 6.33128 6.71945 6.26915C6.71945 6.126 6.04065 4.50018 5.92299 4.36153C5.82823 4.24985 5.40069 4.19141 5.11258 4.25072Z" fill="white"/>
</svg>
