<svg width="628" height="617" viewBox="0 0 628 617" fill="none" xmlns="http://www.w3.org/2000/svg">
<path fill-rule="evenodd" clip-rule="evenodd" d="M538.29 220.357L493.427 176.285L448.572 220.357L493.427 264.427L538.282 308.5L583.145 264.429L538.29 220.357ZM448.572 132.214L493.427 176.285L448.572 220.357L403.715 176.286L358.857 132.214L403.715 88.1428L448.572 132.214ZM314 0L358.857 44.0714L314 88.1428L269.143 44.0714L314 0ZM538.29 396.643L493.427 352.572L448.572 396.643L493.427 440.714L538.29 396.643ZM269.144 132.214L224.287 88.1428L179.429 132.214L134.572 176.286L179.429 220.357L224.287 176.286L269.144 132.214ZM269.144 308.5L224.287 264.428L179.429 308.5L134.572 352.571L179.429 396.643L224.287 352.571L269.144 308.5ZM134.572 176.286L179.429 220.357L134.571 264.428L89.714 220.357L134.572 176.286ZM134.571 264.428L89.714 308.5L44.8574 352.571L0 308.5L44.8574 264.428L89.714 220.357L134.571 264.428ZM314.001 440.714L269.144 484.786L314.001 528.856L358.857 484.786L314.001 440.714ZM358.858 396.643L403.715 440.714L448.572 484.786L403.715 528.856L358.858 572.928L314.001 528.856L269.143 572.928L224.287 528.856L179.429 484.786L224.287 440.714L269.143 396.643L314.001 352.572L358.858 396.643ZM134.572 352.571L179.429 396.643L134.571 440.714L89.714 396.643L134.572 352.571ZM314.001 617L358.858 572.928L314.001 528.856L269.143 572.928L314.001 617ZM403.715 352.571L358.858 396.643L314.001 352.572L358.857 308.5L314.001 264.429L358.858 220.357L403.715 264.428L448.572 308.5L403.715 352.571ZM314.001 176.285L358.858 220.357L314.001 264.429L269.143 220.357L314.001 176.285ZM628 308.5L583.145 264.429L538.29 308.5L583.145 352.571L628 308.5Z" fill="white"/>
</svg>
